<?xml version="1.0" encoding="utf-8"?>
<!-- Generator: Adobe Illustrator 16.0.0, SVG Export Plug-In . SVG Version: 6.00 Build 0)  -->
<!DOCTYPE svg PUBLIC "-//W3C//DTD SVG 1.1//EN" "http://www.w3.org/Graphics/SVG/1.1/DTD/svg11.dtd">
<svg version="1.1" id="Layer_1" xmlns="http://www.w3.org/2000/svg" xmlns:xlink="http://www.w3.org/1999/xlink" x="0px" y="0px"
	 width="283.46px" height="226.771px" viewBox="0 0 283.46 226.771" enable-background="new 0 0 283.46 226.771"
	 xml:space="preserve">
<g transform="translate(0.000000 60.000000) scale(30.000000 -30.000000) translate(2.000000 0.500000)">
	<line fill="none" stroke="#C2C0C0" stroke-width="0.0067" x1="-1.422" y1="-1.086" x2="-1.422" y2="0.914"/>
	<line fill="none" stroke="#C2C0C0" stroke-width="0.0067" x1="-0.922" y1="-1.086" x2="-0.922" y2="0.914"/>
	<line fill="none" stroke="#C2C0C0" stroke-width="0.0067" x1="-0.422" y1="-1.086" x2="-0.422" y2="0.914"/>
	<line fill="none" stroke="#C2C0C0" stroke-width="0.0067" x1="0.078" y1="-1.086" x2="0.078" y2="0.914"/>
	<line fill="none" stroke="#020202" stroke-width="0.0067" x1="0.578" y1="-1.086" x2="0.578" y2="0.914"/>
	<line fill="none" stroke="#C2C0C0" stroke-width="0.0067" x1="1.078" y1="-1.086" x2="1.078" y2="0.914"/>
	<line fill="none" stroke="#C2C0C0" stroke-width="0.0067" x1="1.578" y1="-1.086" x2="1.578" y2="0.914"/>
	<line fill="none" stroke="#C2C0C0" stroke-width="0.0067" x1="2.078" y1="-1.086" x2="2.078" y2="0.914"/>
	<line fill="none" stroke="#C2C0C0" stroke-width="0.0067" x1="2.578" y1="-1.086" x2="2.578" y2="0.914"/>
	<line fill="none" stroke="#C2C0C0" stroke-width="0.0067" x1="-1.422" y1="-1.086" x2="2.578" y2="-1.086"/>
	<line fill="none" stroke="#020202" stroke-width="0.0067" x1="-1.422" y1="-0.586" x2="2.578" y2="-0.586"/>
	<line fill="none" stroke="#C2C0C0" stroke-width="0.0067" x1="-1.422" y1="-0.086" x2="2.578" y2="-0.086"/>
	<line fill="none" stroke="#C2C0C0" stroke-width="0.0067" x1="-1.422" y1="0.414" x2="2.578" y2="0.414"/>
	<line fill="none" stroke="#C2C0C0" stroke-width="0.0067" x1="-1.422" y1="0.914" x2="2.578" y2="0.914"/>
	<g>
		<g>
			<defs>
				<rect id="SVGID_1_" x="-1799.423" y="-900.086" width="3600.001" height="1800"/>
			</defs>
			<clipPath id="SVGID_2_">
				<use xlink:href="#SVGID_1_"  overflow="visible"/>
			</clipPath>
			<g clip-path="url(#SVGID_2_)">
				<line fill="none" stroke="#7E1618" stroke-width="0.0167" x1="-1.422" y1="-0.586" x2="-1.356" y2="-0.586"/>
				<line fill="none" stroke="#7E1618" stroke-width="0.0167" x1="-1.356" y1="-0.586" x2="-1.289" y2="-0.586"/>
				<line fill="none" stroke="#7E1618" stroke-width="0.0167" x1="-1.289" y1="-0.586" x2="-1.222" y2="-0.586"/>
				<line fill="none" stroke="#7E1618" stroke-width="0.0167" x1="-1.222" y1="-0.586" x2="-1.156" y2="-0.586"/>
				<line fill="none" stroke="#7E1618" stroke-width="0.0167" x1="-1.156" y1="-0.586" x2="-1.089" y2="-0.586"/>
				<line fill="none" stroke="#7E1618" stroke-width="0.0167" x1="-1.089" y1="-0.586" x2="-1.022" y2="-0.586"/>
				<line fill="none" stroke="#7E1618" stroke-width="0.0167" x1="-1.022" y1="-0.586" x2="-0.956" y2="-0.586"/>
				<line fill="none" stroke="#7E1618" stroke-width="0.0167" x1="-0.956" y1="-0.586" x2="-0.889" y2="-0.586"/>
				<line fill="none" stroke="#7E1618" stroke-width="0.0167" x1="-0.889" y1="-0.586" x2="-0.822" y2="-0.586"/>
				<line fill="none" stroke="#7E1618" stroke-width="0.0167" x1="-0.822" y1="-0.586" x2="-0.756" y2="-0.586"/>
				<line fill="none" stroke="#7E1618" stroke-width="0.0167" x1="-0.756" y1="-0.586" x2="-0.689" y2="-0.586"/>
				<line fill="none" stroke="#7E1618" stroke-width="0.0167" x1="-0.689" y1="-0.586" x2="-0.622" y2="-0.586"/>
				<line fill="none" stroke="#7E1618" stroke-width="0.0167" x1="-0.622" y1="-0.586" x2="-0.556" y2="-0.586"/>
				<line fill="none" stroke="#7E1618" stroke-width="0.0167" x1="-0.556" y1="-0.586" x2="-0.489" y2="-0.586"/>
				<line fill="none" stroke="#7E1618" stroke-width="0.0167" x1="-0.489" y1="-0.586" x2="-0.422" y2="-0.586"/>
				<line fill="none" stroke="#7E1618" stroke-width="0.0167" x1="-0.422" y1="-0.586" x2="-0.356" y2="-0.586"/>
				<line fill="none" stroke="#7E1618" stroke-width="0.0167" x1="-0.356" y1="-0.586" x2="-0.289" y2="-0.586"/>
				<line fill="none" stroke="#7E1618" stroke-width="0.0167" x1="-0.289" y1="-0.586" x2="-0.222" y2="-0.586"/>
				<line fill="none" stroke="#7E1618" stroke-width="0.0167" x1="-0.222" y1="-0.586" x2="-0.156" y2="-0.586"/>
				<line fill="none" stroke="#7E1618" stroke-width="0.0167" x1="-0.156" y1="-0.586" x2="-0.089" y2="-0.586"/>
				<line fill="none" stroke="#7E1618" stroke-width="0.0167" x1="-0.089" y1="-0.586" x2="-0.022" y2="-0.586"/>
				<line fill="none" stroke="#7E1618" stroke-width="0.0167" x1="-0.022" y1="-0.586" x2="0.044" y2="-0.586"/>
				<line fill="none" stroke="#7E1618" stroke-width="0.0167" x1="0.044" y1="-0.586" x2="0.111" y2="-0.586"/>
				<line fill="none" stroke="#7E1618" stroke-width="0.0167" x1="0.111" y1="-0.586" x2="0.178" y2="-0.586"/>
				<line fill="none" stroke="#7E1618" stroke-width="0.0167" x1="0.178" y1="-0.586" x2="0.244" y2="-0.586"/>
				<line fill="none" stroke="#7E1618" stroke-width="0.0167" x1="0.244" y1="-0.586" x2="0.311" y2="-0.586"/>
				<line fill="none" stroke="#7E1618" stroke-width="0.0167" x1="0.311" y1="-0.586" x2="0.378" y2="-0.586"/>
				<line fill="none" stroke="#7E1618" stroke-width="0.0167" x1="0.378" y1="-0.586" x2="0.444" y2="-0.586"/>
				<line fill="none" stroke="#7E1618" stroke-width="0.0167" x1="0.444" y1="-0.586" x2="0.511" y2="-0.586"/>
				<line fill="none" stroke="#7E1618" stroke-width="0.0167" x1="0.511" y1="-0.586" x2="0.578" y2="-0.586"/>
				<line fill="none" stroke="#7E1618" stroke-width="0.0177" x1="0.578" y1="-0.586" x2="0.644" y2="0.414"/>
				<line fill="none" stroke="#7E1618" stroke-width="0.0167" x1="0.644" y1="0.414" x2="0.711" y2="0.414"/>
				<line fill="none" stroke="#7E1618" stroke-width="0.0167" x1="0.711" y1="0.414" x2="0.778" y2="0.414"/>
				<line fill="none" stroke="#7E1618" stroke-width="0.0167" x1="0.778" y1="0.414" x2="0.844" y2="0.414"/>
				<line fill="none" stroke="#7E1618" stroke-width="0.0167" x1="0.844" y1="0.414" x2="0.911" y2="0.414"/>
				<line fill="none" stroke="#7E1618" stroke-width="0.0167" x1="0.911" y1="0.414" x2="0.978" y2="0.414"/>
				<line fill="none" stroke="#7E1618" stroke-width="0.0167" x1="0.978" y1="0.414" x2="1.044" y2="0.414"/>
				<line fill="none" stroke="#7E1618" stroke-width="0.0167" x1="1.044" y1="0.414" x2="1.111" y2="0.414"/>
				<line fill="none" stroke="#7E1618" stroke-width="0.0167" x1="1.111" y1="0.414" x2="1.178" y2="0.414"/>
				<line fill="none" stroke="#7E1618" stroke-width="0.0167" x1="1.178" y1="0.414" x2="1.244" y2="0.414"/>
				<line fill="none" stroke="#7E1618" stroke-width="0.0167" x1="1.244" y1="0.414" x2="1.311" y2="0.414"/>
				<line fill="none" stroke="#7E1618" stroke-width="0.0167" x1="1.311" y1="0.414" x2="1.378" y2="0.414"/>
				<line fill="none" stroke="#7E1618" stroke-width="0.0167" x1="1.378" y1="0.414" x2="1.444" y2="0.414"/>
				<line fill="none" stroke="#7E1618" stroke-width="0.0167" x1="1.444" y1="0.414" x2="1.511" y2="0.414"/>
				<line fill="none" stroke="#7E1618" stroke-width="0.0167" x1="1.511" y1="0.414" x2="1.578" y2="0.414"/>
				<line fill="none" stroke="#7E1618" stroke-width="0.0167" x1="1.578" y1="0.414" x2="1.644" y2="0.414"/>
				<line fill="none" stroke="#7E1618" stroke-width="0.0167" x1="1.644" y1="0.414" x2="1.711" y2="0.414"/>
				<line fill="none" stroke="#7E1618" stroke-width="0.0167" x1="1.711" y1="0.414" x2="1.778" y2="0.414"/>
				<line fill="none" stroke="#7E1618" stroke-width="0.0167" x1="1.778" y1="0.414" x2="1.844" y2="0.414"/>
				<line fill="none" stroke="#7E1618" stroke-width="0.0167" x1="1.844" y1="0.414" x2="1.911" y2="0.414"/>
				<line fill="none" stroke="#7E1618" stroke-width="0.0167" x1="1.911" y1="0.414" x2="1.978" y2="0.414"/>
				<line fill="none" stroke="#7E1618" stroke-width="0.0167" x1="1.978" y1="0.414" x2="2.044" y2="0.414"/>
				<line fill="none" stroke="#7E1618" stroke-width="0.0167" x1="2.044" y1="0.414" x2="2.111" y2="0.414"/>
				<line fill="none" stroke="#7E1618" stroke-width="0.0167" x1="2.111" y1="0.414" x2="2.178" y2="0.414"/>
				<line fill="none" stroke="#7E1618" stroke-width="0.0167" x1="2.178" y1="0.414" x2="2.244" y2="0.414"/>
				<line fill="none" stroke="#7E1618" stroke-width="0.0167" x1="2.244" y1="0.414" x2="2.311" y2="0.414"/>
				<line fill="none" stroke="#7E1618" stroke-width="0.0167" x1="2.311" y1="0.414" x2="2.378" y2="0.414"/>
				<line fill="none" stroke="#7E1618" stroke-width="0.0167" x1="2.378" y1="0.414" x2="2.444" y2="0.414"/>
				<line fill="none" stroke="#7E1618" stroke-width="0.0167" x1="2.444" y1="0.414" x2="2.511" y2="0.414"/>
				<line fill="none" stroke="#7E1618" stroke-width="0.0167" x1="2.511" y1="0.414" x2="2.578" y2="0.414"/>
				<line fill="none" stroke="#7E1618" stroke-width="0.0167" x1="2.578" y1="0.414" x2="2.644" y2="0.414"/>
			</g>
		</g>
	</g>
</g>
<g transform="translate(0.000000 60.000000) scale(20.000000 -20.000000) translate(3.000000 1.500000)">
	<line fill="none" stroke="#C2C0C0" stroke-width="0.01" x1="4.415" y1="-2.378" x2="4.415" y2="0.622"/>
	<line fill="none" stroke="#C2C0C0" stroke-width="0.01" x1="4.915" y1="-2.378" x2="4.915" y2="0.622"/>
	<line fill="none" stroke="#C2C0C0" stroke-width="0.01" x1="5.415" y1="-2.378" x2="5.415" y2="0.622"/>
	<line fill="none" stroke="#C2C0C0" stroke-width="0.01" x1="5.915" y1="-2.378" x2="5.915" y2="0.622"/>
	<line fill="none" stroke="#C2C0C0" stroke-width="0.01" x1="6.415" y1="-2.378" x2="6.415" y2="0.622"/>
	<line fill="none" stroke="#C2C0C0" stroke-width="0.01" x1="6.915" y1="-2.378" x2="6.915" y2="0.622"/>
	<line fill="none" stroke="#020202" stroke-width="0.01" x1="7.415" y1="-2.378" x2="7.415" y2="0.622"/>
	<line fill="none" stroke="#C2C0C0" stroke-width="0.01" x1="7.915" y1="-2.378" x2="7.915" y2="0.622"/>
	<line fill="none" stroke="#C2C0C0" stroke-width="0.01" x1="8.415" y1="-2.378" x2="8.415" y2="0.622"/>
	<line fill="none" stroke="#C2C0C0" stroke-width="0.01" x1="8.915" y1="-2.378" x2="8.915" y2="0.622"/>
	<line fill="none" stroke="#C2C0C0" stroke-width="0.01" x1="9.415" y1="-2.378" x2="9.415" y2="0.622"/>
	<line fill="none" stroke="#C2C0C0" stroke-width="0.01" x1="9.915" y1="-2.378" x2="9.915" y2="0.622"/>
	<line fill="none" stroke="#C2C0C0" stroke-width="0.01" x1="10.415" y1="-2.378" x2="10.415" y2="0.622"/>
	<line fill="none" stroke="#C2C0C0" stroke-width="0.01" x1="4.415" y1="-2.378" x2="10.415" y2="-2.378"/>
	<line fill="none" stroke="#C2C0C0" stroke-width="0.01" x1="4.415" y1="-1.878" x2="10.415" y2="-1.878"/>
	<line fill="none" stroke="#C2C0C0" stroke-width="0.01" x1="4.415" y1="-1.378" x2="10.415" y2="-1.378"/>
	<line fill="none" stroke="#020202" stroke-width="0.01" x1="4.415" y1="-0.878" x2="10.415" y2="-0.878"/>
	<line fill="none" stroke="#C2C0C0" stroke-width="0.01" x1="4.415" y1="-0.378" x2="10.415" y2="-0.378"/>
	<line fill="none" stroke="#C2C0C0" stroke-width="0.01" x1="4.415" y1="0.122" x2="10.415" y2="0.122"/>
	<line fill="none" stroke="#C2C0C0" stroke-width="0.01" x1="4.415" y1="0.622" x2="10.415" y2="0.622"/>
	<g>
		<g>
			<defs>
				<rect id="SVGID_3_" x="-1192.585" y="-600.878" width="2400" height="1200"/>
			</defs>
			<clipPath id="SVGID_4_">
				<use xlink:href="#SVGID_3_"  overflow="visible"/>
			</clipPath>
			<g clip-path="url(#SVGID_4_)">
				<line fill="none" stroke="#7E1618" stroke-width="0.0354" x1="4.515" y1="-3.778" x2="4.515" y2="-3.778"/>
				<line fill="none" stroke="#7E1618" stroke-width="0.0354" x1="4.615" y1="-3.678" x2="4.615" y2="-3.678"/>
				<line fill="none" stroke="#7E1618" stroke-width="0.0354" x1="4.715" y1="-3.578" x2="4.715" y2="-3.578"/>
				<line fill="none" stroke="#7E1618" stroke-width="0.0354" x1="4.815" y1="-3.478" x2="4.815" y2="-3.478"/>
				<line fill="none" stroke="#7E1618" stroke-width="0.0354" x1="5.915" y1="-2.378" x2="5.915" y2="-2.378"/>
				<line fill="none" stroke="#7E1618" stroke-width="0.0354" x1="5.015" y1="-3.278" x2="5.015" y2="-3.278"/>
				<line fill="none" stroke="#7E1618" stroke-width="0.0354" x1="5.115" y1="-3.178" x2="5.115" y2="-3.178"/>
				<line fill="none" stroke="#7E1618" stroke-width="0.0354" x1="5.215" y1="-3.078" x2="5.215" y2="-3.078"/>
				<line fill="none" stroke="#7E1618" stroke-width="0.0354" x1="5.315" y1="-2.978" x2="5.315" y2="-2.978"/>
				<line fill="none" stroke="#7E1618" stroke-width="0.0354" x1="5.415" y1="-2.878" x2="5.415" y2="-2.878"/>
				<line fill="none" stroke="#7E1618" stroke-width="0.0354" x1="5.815" y1="-2.478" x2="5.815" y2="-2.478"/>
				<line fill="none" stroke="#7E1618" stroke-width="0.0354" x1="5.915" y1="-2.378" x2="5.94" y2="-2.353"/>
				<line fill="none" stroke="#7E1618" stroke-width="0.0354" x1="5.94" y1="-2.353" x2="5.915" y2="-2.378"/>
				<line fill="none" stroke="#7E1618" stroke-width="0.0354" x1="5.915" y1="-2.378" x2="5.915" y2="-2.378"/>
				<line fill="none" stroke="#7E1618" stroke-width="0.0354" x1="5.915" y1="-2.378" x2="5.915" y2="-2.378"/>
				<line fill="none" stroke="#7E1618" stroke-width="0.0354" x1="5.915" y1="-2.378" x2="6.015" y2="-2.278"/>
				<line fill="none" stroke="#7E1618" stroke-width="0.0354" x1="6.015" y1="-2.278" x2="6.115" y2="-2.178"/>
				<line fill="none" stroke="#7E1618" stroke-width="0.0354" x1="6.115" y1="-2.178" x2="6.215" y2="-2.078"/>
				<line fill="none" stroke="#7E1618" stroke-width="0.0354" x1="6.215" y1="-2.078" x2="6.315" y2="-1.978"/>
				<line fill="none" stroke="#7E1618" stroke-width="0.0354" x1="6.315" y1="-1.978" x2="6.415" y2="-1.878"/>
				<line fill="none" stroke="#7E1618" stroke-width="0.0354" x1="6.415" y1="-1.878" x2="6.515" y2="-1.778"/>
				<line fill="none" stroke="#7E1618" stroke-width="0.0354" x1="6.515" y1="-1.778" x2="6.615" y2="-1.678"/>
				<line fill="none" stroke="#7E1618" stroke-width="0.0354" x1="6.615" y1="-1.678" x2="6.715" y2="-1.578"/>
				<line fill="none" stroke="#7E1618" stroke-width="0.0354" x1="6.715" y1="-1.578" x2="6.815" y2="-1.478"/>
				<line fill="none" stroke="#7E1618" stroke-width="0.0354" x1="6.815" y1="-1.478" x2="6.915" y2="-1.378"/>
				<line fill="none" stroke="#7E1618" stroke-width="0.0354" x1="6.915" y1="-1.378" x2="7.015" y2="-1.278"/>
				<line fill="none" stroke="#7E1618" stroke-width="0.0354" x1="7.015" y1="-1.278" x2="7.115" y2="-1.178"/>
				<line fill="none" stroke="#7E1618" stroke-width="0.0354" x1="7.115" y1="-1.178" x2="7.215" y2="-1.078"/>
				<line fill="none" stroke="#7E1618" stroke-width="0.0354" x1="7.215" y1="-1.078" x2="7.315" y2="-0.978"/>
				<line fill="none" stroke="#7E1618" stroke-width="0.0354" x1="7.315" y1="-0.978" x2="7.415" y2="-0.878"/>
				<line fill="none" stroke="#7E1618" stroke-width="0.0354" x1="7.415" y1="-0.878" x2="7.515" y2="-0.778"/>
				<line fill="none" stroke="#7E1618" stroke-width="0.0354" x1="7.515" y1="-0.778" x2="7.615" y2="-0.678"/>
				<line fill="none" stroke="#7E1618" stroke-width="0.0354" x1="7.615" y1="-0.678" x2="7.715" y2="-0.578"/>
				<line fill="none" stroke="#7E1618" stroke-width="0.0354" x1="7.715" y1="-0.578" x2="7.815" y2="-0.478"/>
				<line fill="none" stroke="#7E1618" stroke-width="0.0354" x1="7.815" y1="-0.478" x2="7.915" y2="-0.378"/>
				<line fill="none" stroke="#7E1618" stroke-width="0.0354" x1="7.915" y1="-0.378" x2="8.015" y2="-0.278"/>
				<line fill="none" stroke="#7E1618" stroke-width="0.0354" x1="8.015" y1="-0.278" x2="8.115" y2="-0.178"/>
				<line fill="none" stroke="#7E1618" stroke-width="0.0354" x1="8.115" y1="-0.178" x2="8.215" y2="-0.078"/>
				<line fill="none" stroke="#7E1618" stroke-width="0.0354" x1="8.215" y1="-0.078" x2="8.315" y2="0.022"/>
				<line fill="none" stroke="#7E1618" stroke-width="0.0354" x1="8.315" y1="0.022" x2="8.415" y2="0.122"/>
				<line fill="none" stroke="#7E1618" stroke-width="0.0354" x1="8.415" y1="0.122" x2="8.515" y2="0.222"/>
				<line fill="none" stroke="#7E1618" stroke-width="0.0354" x1="8.515" y1="0.222" x2="8.615" y2="0.322"/>
				<line fill="none" stroke="#7E1618" stroke-width="0.0354" x1="8.615" y1="0.322" x2="8.715" y2="0.422"/>
				<line fill="none" stroke="#7E1618" stroke-width="0.0354" x1="8.715" y1="0.422" x2="8.815" y2="0.522"/>
				<line fill="none" stroke="#7E1618" stroke-width="0.0354" x1="8.815" y1="0.522" x2="8.915" y2="0.622"/>
				<path fill="none" stroke="#7E1618" stroke-width="0.0354" d="M10.315,2.022"/>
				<line fill="none" stroke="#7E1618" stroke-width="0.0354" x1="10.315" y1="2.022" x2="10.315" y2="2.022"/>
			</g>
		</g>
	</g>
</g>
<g transform="translate(0.000000 60.000000) scale(20.000000 -20.000000) translate(3.000000 1.000000)">
	<line fill="none" stroke="#C2C0C0" stroke-width="0.01" x1="-2.133" y1="-5.345" x2="-2.133" y2="-2.345"/>
	<line fill="none" stroke="#C2C0C0" stroke-width="0.01" x1="-1.633" y1="-5.345" x2="-1.633" y2="-2.345"/>
	<line fill="none" stroke="#C2C0C0" stroke-width="0.01" x1="-1.133" y1="-5.345" x2="-1.133" y2="-2.345"/>
	<line fill="none" stroke="#C2C0C0" stroke-width="0.01" x1="-0.633" y1="-5.345" x2="-0.633" y2="-2.345"/>
	<line fill="none" stroke="#C2C0C0" stroke-width="0.01" x1="-0.133" y1="-5.345" x2="-0.133" y2="-2.345"/>
	<line fill="none" stroke="#C2C0C0" stroke-width="0.01" x1="0.367" y1="-5.345" x2="0.367" y2="-2.345"/>
	<line fill="none" stroke="#020202" stroke-width="0.01" x1="0.867" y1="-5.345" x2="0.867" y2="-2.345"/>
	<line fill="none" stroke="#C2C0C0" stroke-width="0.01" x1="1.367" y1="-5.345" x2="1.367" y2="-2.345"/>
	<line fill="none" stroke="#C2C0C0" stroke-width="0.01" x1="1.867" y1="-5.345" x2="1.867" y2="-2.345"/>
	<line fill="none" stroke="#C2C0C0" stroke-width="0.01" x1="2.367" y1="-5.345" x2="2.367" y2="-2.345"/>
	<line fill="none" stroke="#C2C0C0" stroke-width="0.01" x1="2.867" y1="-5.345" x2="2.867" y2="-2.345"/>
	<line fill="none" stroke="#C2C0C0" stroke-width="0.01" x1="3.367" y1="-5.345" x2="3.367" y2="-2.345"/>
	<line fill="none" stroke="#C2C0C0" stroke-width="0.01" x1="3.867" y1="-5.345" x2="3.867" y2="-2.345"/>
	<line fill="none" stroke="#C2C0C0" stroke-width="0.01" x1="-2.133" y1="-5.345" x2="3.867" y2="-5.345"/>
	<line fill="none" stroke="#C2C0C0" stroke-width="0.01" x1="-2.133" y1="-4.845" x2="3.867" y2="-4.845"/>
	<line fill="none" stroke="#020202" stroke-width="0.01" x1="-2.133" y1="-4.345" x2="3.867" y2="-4.345"/>
	<line fill="none" stroke="#C2C0C0" stroke-width="0.01" x1="-2.133" y1="-3.845" x2="3.867" y2="-3.845"/>
	<line fill="none" stroke="#C2C0C0" stroke-width="0.01" x1="-2.133" y1="-3.345" x2="3.867" y2="-3.345"/>
	<line fill="none" stroke="#C2C0C0" stroke-width="0.01" x1="-2.133" y1="-2.845" x2="3.867" y2="-2.845"/>
	<line fill="none" stroke="#C2C0C0" stroke-width="0.01" x1="-2.133" y1="-2.345" x2="3.867" y2="-2.345"/>
	<g>
		<g>
			<defs>
				<rect id="SVGID_5_" x="-1199.134" y="-603.845" width="2400.001" height="1200"/>
			</defs>
			<clipPath id="SVGID_6_">
				<use xlink:href="#SVGID_5_"  overflow="visible"/>
			</clipPath>
			<g clip-path="url(#SVGID_6_)">
				<line fill="none" stroke="#7E1618" stroke-width="0.0262" x1="-2.133" y1="-4.298" x2="-2.033" y2="-4.293"/>
				<line fill="none" stroke="#7E1618" stroke-width="0.0263" x1="-2.033" y1="-4.293" x2="-1.933" y2="-4.288"/>
				<line fill="none" stroke="#7E1618" stroke-width="0.0264" x1="-1.933" y1="-4.288" x2="-1.833" y2="-4.282"/>
				<line fill="none" stroke="#7E1618" stroke-width="0.0265" x1="-1.833" y1="-4.282" x2="-1.733" y2="-4.276"/>
				<line fill="none" stroke="#7E1618" stroke-width="0.0266" x1="-1.733" y1="-4.276" x2="-1.633" y2="-4.269"/>
				<line fill="none" stroke="#7E1618" stroke-width="0.0268" x1="-1.633" y1="-4.269" x2="-1.533" y2="-4.262"/>
				<line fill="none" stroke="#7E1618" stroke-width="0.0269" x1="-1.533" y1="-4.262" x2="-1.433" y2="-4.254"/>
				<line fill="none" stroke="#7E1618" stroke-width="0.0271" x1="-1.433" y1="-4.254" x2="-1.333" y2="-4.245"/>
				<line fill="none" stroke="#7E1618" stroke-width="0.0272" x1="-1.333" y1="-4.245" x2="-1.233" y2="-4.236"/>
				<line fill="none" stroke="#7E1618" stroke-width="0.0274" x1="-1.233" y1="-4.236" x2="-1.133" y2="-4.226"/>
				<line fill="none" stroke="#7E1618" stroke-width="0.0276" x1="-1.133" y1="-4.226" x2="-1.033" y2="-4.215"/>
				<line fill="none" stroke="#7E1618" stroke-width="0.0277" x1="-1.033" y1="-4.215" x2="-0.933" y2="-4.203"/>
				<line fill="none" stroke="#7E1618" stroke-width="0.0279" x1="-0.933" y1="-4.203" x2="-0.833" y2="-4.191"/>
				<line fill="none" stroke="#7E1618" stroke-width="0.0281" x1="-0.833" y1="-4.191" x2="-0.733" y2="-4.177"/>
				<line fill="none" stroke="#7E1618" stroke-width="0.0283" x1="-0.733" y1="-4.177" x2="-0.633" y2="-4.163"/>
				<line fill="none" stroke="#7E1618" stroke-width="0.0285" x1="-0.633" y1="-4.163" x2="-0.533" y2="-4.147"/>
				<line fill="none" stroke="#7E1618" stroke-width="0.0287" x1="-0.533" y1="-4.147" x2="-0.433" y2="-4.131"/>
				<line fill="none" stroke="#7E1618" stroke-width="0.0289" x1="-0.433" y1="-4.131" x2="-0.333" y2="-4.114"/>
				<line fill="none" stroke="#7E1618" stroke-width="0.0291" x1="-0.333" y1="-4.114" x2="-0.233" y2="-4.095"/>
				<line fill="none" stroke="#7E1618" stroke-width="0.0293" x1="-0.233" y1="-4.095" x2="-0.133" y2="-4.076"/>
				<line fill="none" stroke="#7E1618" stroke-width="0.0294" x1="-0.133" y1="-4.076" x2="-0.033" y2="-4.056"/>
				<line fill="none" stroke="#7E1618" stroke-width="0.0296" x1="-0.033" y1="-4.056" x2="0.067" y2="-4.035"/>
				<line fill="none" stroke="#7E1618" stroke-width="0.0297" x1="0.067" y1="-4.035" x2="0.167" y2="-4.013"/>
				<line fill="none" stroke="#7E1618" stroke-width="0.0299" x1="0.167" y1="-4.013" x2="0.267" y2="-3.991"/>
				<line fill="none" stroke="#7E1618" stroke-width="0.03" x1="0.267" y1="-3.991" x2="0.367" y2="-3.967"/>
				<line fill="none" stroke="#7E1618" stroke-width="0.0301" x1="0.367" y1="-3.967" x2="0.467" y2="-3.944"/>
				<line fill="none" stroke="#7E1618" stroke-width="0.0302" x1="0.467" y1="-3.944" x2="0.567" y2="-3.919"/>
				<line fill="none" stroke="#7E1618" stroke-width="0.0302" x1="0.567" y1="-3.919" x2="0.667" y2="-3.895"/>
				<line fill="none" stroke="#7E1618" stroke-width="0.0303" x1="0.667" y1="-3.895" x2="0.767" y2="-3.87"/>
				<line fill="none" stroke="#7E1618" stroke-width="0.0303" x1="0.767" y1="-3.87" x2="0.867" y2="-3.845"/>
				<line fill="none" stroke="#7E1618" stroke-width="0.0303" x1="0.867" y1="-3.845" x2="0.967" y2="-3.82"/>
				<line fill="none" stroke="#7E1618" stroke-width="0.0303" x1="0.967" y1="-3.82" x2="1.067" y2="-3.795"/>
				<line fill="none" stroke="#7E1618" stroke-width="0.0302" x1="1.067" y1="-3.795" x2="1.167" y2="-3.771"/>
				<line fill="none" stroke="#7E1618" stroke-width="0.0302" x1="1.167" y1="-3.771" x2="1.267" y2="-3.746"/>
				<line fill="none" stroke="#7E1618" stroke-width="0.0301" x1="1.267" y1="-3.746" x2="1.367" y2="-3.723"/>
				<line fill="none" stroke="#7E1618" stroke-width="0.03" x1="1.367" y1="-3.723" x2="1.467" y2="-3.699"/>
				<line fill="none" stroke="#7E1618" stroke-width="0.0299" x1="1.467" y1="-3.699" x2="1.567" y2="-3.677"/>
				<line fill="none" stroke="#7E1618" stroke-width="0.0297" x1="1.567" y1="-3.677" x2="1.667" y2="-3.655"/>
				<line fill="none" stroke="#7E1618" stroke-width="0.0296" x1="1.667" y1="-3.655" x2="1.767" y2="-3.634"/>
				<line fill="none" stroke="#7E1618" stroke-width="0.0294" x1="1.767" y1="-3.634" x2="1.867" y2="-3.614"/>
				<line fill="none" stroke="#7E1618" stroke-width="0.0293" x1="1.867" y1="-3.614" x2="1.967" y2="-3.595"/>
				<line fill="none" stroke="#7E1618" stroke-width="0.0291" x1="1.967" y1="-3.595" x2="2.067" y2="-3.576"/>
				<line fill="none" stroke="#7E1618" stroke-width="0.0289" x1="2.067" y1="-3.576" x2="2.167" y2="-3.559"/>
				<line fill="none" stroke="#7E1618" stroke-width="0.0287" x1="2.167" y1="-3.559" x2="2.267" y2="-3.543"/>
				<line fill="none" stroke="#7E1618" stroke-width="0.0285" x1="2.267" y1="-3.543" x2="2.367" y2="-3.527"/>
				<line fill="none" stroke="#7E1618" stroke-width="0.0283" x1="2.367" y1="-3.527" x2="2.467" y2="-3.513"/>
				<line fill="none" stroke="#7E1618" stroke-width="0.0281" x1="2.467" y1="-3.513" x2="2.567" y2="-3.499"/>
				<line fill="none" stroke="#7E1618" stroke-width="0.0279" x1="2.567" y1="-3.499" x2="2.667" y2="-3.487"/>
				<line fill="none" stroke="#7E1618" stroke-width="0.0277" x1="2.667" y1="-3.487" x2="2.767" y2="-3.475"/>
				<line fill="none" stroke="#7E1618" stroke-width="0.0276" x1="2.767" y1="-3.475" x2="2.867" y2="-3.464"/>
				<line fill="none" stroke="#7E1618" stroke-width="0.0274" x1="2.867" y1="-3.464" x2="2.967" y2="-3.454"/>
				<line fill="none" stroke="#7E1618" stroke-width="0.0272" x1="2.967" y1="-3.454" x2="3.067" y2="-3.445"/>
				<line fill="none" stroke="#7E1618" stroke-width="0.0271" x1="3.067" y1="-3.445" x2="3.167" y2="-3.436"/>
				<line fill="none" stroke="#7E1618" stroke-width="0.0269" x1="3.167" y1="-3.436" x2="3.267" y2="-3.428"/>
				<line fill="none" stroke="#7E1618" stroke-width="0.0268" x1="3.267" y1="-3.428" x2="3.367" y2="-3.421"/>
				<line fill="none" stroke="#7E1618" stroke-width="0.0266" x1="3.367" y1="-3.421" x2="3.467" y2="-3.414"/>
				<line fill="none" stroke="#7E1618" stroke-width="0.0265" x1="3.467" y1="-3.414" x2="3.567" y2="-3.408"/>
				<line fill="none" stroke="#7E1618" stroke-width="0.0264" x1="3.567" y1="-3.408" x2="3.667" y2="-3.402"/>
				<line fill="none" stroke="#7E1618" stroke-width="0.0263" x1="3.667" y1="-3.402" x2="3.767" y2="-3.397"/>
				<line fill="none" stroke="#7E1618" stroke-width="0.0262" x1="3.767" y1="-3.397" x2="3.867" y2="-3.392"/>
			</g>
		</g>
	</g>
</g>
<g transform="translate(0.000000 60.000000) scale(20.000000 -20.000000) translate(3.000000 0.500000)">
	<line fill="none" stroke="#C2C0C0" stroke-width="0.01" x1="4.393" y1="-4.845" x2="4.393" y2="-1.845"/>
	<line fill="none" stroke="#C2C0C0" stroke-width="0.01" x1="4.893" y1="-4.845" x2="4.893" y2="-1.845"/>
	<line fill="none" stroke="#C2C0C0" stroke-width="0.01" x1="5.393" y1="-4.845" x2="5.393" y2="-1.845"/>
	<line fill="none" stroke="#C2C0C0" stroke-width="0.01" x1="5.893" y1="-4.845" x2="5.893" y2="-1.845"/>
	<line fill="none" stroke="#C2C0C0" stroke-width="0.01" x1="6.393" y1="-4.845" x2="6.393" y2="-1.845"/>
	<line fill="none" stroke="#C2C0C0" stroke-width="0.01" x1="6.893" y1="-4.845" x2="6.893" y2="-1.845"/>
	<line fill="none" stroke="#020202" stroke-width="0.01" x1="7.393" y1="-4.845" x2="7.393" y2="-1.845"/>
	<line fill="none" stroke="#C2C0C0" stroke-width="0.01" x1="7.893" y1="-4.845" x2="7.893" y2="-1.845"/>
	<line fill="none" stroke="#C2C0C0" stroke-width="0.01" x1="8.393" y1="-4.845" x2="8.393" y2="-1.845"/>
	<line fill="none" stroke="#C2C0C0" stroke-width="0.01" x1="8.893" y1="-4.845" x2="8.893" y2="-1.845"/>
	<line fill="none" stroke="#C2C0C0" stroke-width="0.01" x1="9.393" y1="-4.845" x2="9.393" y2="-1.845"/>
	<line fill="none" stroke="#C2C0C0" stroke-width="0.01" x1="9.893" y1="-4.845" x2="9.893" y2="-1.845"/>
	<line fill="none" stroke="#C2C0C0" stroke-width="0.01" x1="10.393" y1="-4.845" x2="10.393" y2="-1.845"/>
	<line fill="none" stroke="#C2C0C0" stroke-width="0.01" x1="4.393" y1="-4.845" x2="10.393" y2="-4.845"/>
	<line fill="none" stroke="#020202" stroke-width="0.01" x1="4.393" y1="-4.345" x2="10.393" y2="-4.345"/>
	<line fill="none" stroke="#C2C0C0" stroke-width="0.01" x1="4.393" y1="-3.845" x2="10.393" y2="-3.845"/>
	<line fill="none" stroke="#C2C0C0" stroke-width="0.01" x1="4.393" y1="-3.345" x2="10.393" y2="-3.345"/>
	<line fill="none" stroke="#C2C0C0" stroke-width="0.01" x1="4.393" y1="-2.845" x2="10.393" y2="-2.845"/>
	<line fill="none" stroke="#C2C0C0" stroke-width="0.01" x1="4.393" y1="-2.345" x2="10.393" y2="-2.345"/>
	<line fill="none" stroke="#C2C0C0" stroke-width="0.01" x1="4.393" y1="-1.845" x2="10.393" y2="-1.845"/>
	<g>
		<g>
			<defs>
				<rect id="SVGID_7_" x="-1192.607" y="-603.345" width="2400" height="1200"/>
			</defs>
			<clipPath id="SVGID_8_">
				<use xlink:href="#SVGID_7_"  overflow="visible"/>
			</clipPath>
			<g clip-path="url(#SVGID_8_)">
				<line fill="none" stroke="#7E1618" stroke-width="0.025" x1="4.393" y1="-4.345" x2="4.493" y2="-4.345"/>
				<line fill="none" stroke="#7E1618" stroke-width="0.025" x1="4.493" y1="-4.345" x2="4.593" y2="-4.345"/>
				<line fill="none" stroke="#7E1618" stroke-width="0.025" x1="4.593" y1="-4.345" x2="4.693" y2="-4.345"/>
				<line fill="none" stroke="#7E1618" stroke-width="0.025" x1="4.693" y1="-4.345" x2="4.793" y2="-4.345"/>
				<line fill="none" stroke="#7E1618" stroke-width="0.025" x1="4.793" y1="-4.345" x2="4.893" y2="-4.345"/>
				<line fill="none" stroke="#7E1618" stroke-width="0.025" x1="4.893" y1="-4.345" x2="4.993" y2="-4.345"/>
				<line fill="none" stroke="#7E1618" stroke-width="0.025" x1="4.993" y1="-4.345" x2="5.093" y2="-4.345"/>
				<line fill="none" stroke="#7E1618" stroke-width="0.025" x1="5.093" y1="-4.345" x2="5.193" y2="-4.345"/>
				<line fill="none" stroke="#7E1618" stroke-width="0.025" x1="5.193" y1="-4.345" x2="5.293" y2="-4.345"/>
				<line fill="none" stroke="#7E1618" stroke-width="0.025" x1="5.293" y1="-4.345" x2="5.393" y2="-4.345"/>
				<line fill="none" stroke="#7E1618" stroke-width="0.025" x1="5.393" y1="-4.345" x2="5.493" y2="-4.345"/>
				<line fill="none" stroke="#7E1618" stroke-width="0.025" x1="5.493" y1="-4.345" x2="5.593" y2="-4.345"/>
				<line fill="none" stroke="#7E1618" stroke-width="0.025" x1="5.593" y1="-4.345" x2="5.693" y2="-4.345"/>
				<line fill="none" stroke="#7E1618" stroke-width="0.025" x1="5.693" y1="-4.345" x2="5.793" y2="-4.345"/>
				<line fill="none" stroke="#7E1618" stroke-width="0.025" x1="5.793" y1="-4.345" x2="5.893" y2="-4.345"/>
				<line fill="none" stroke="#7E1618" stroke-width="0.025" x1="5.893" y1="-4.345" x2="5.993" y2="-4.345"/>
				<line fill="none" stroke="#7E1618" stroke-width="0.025" x1="5.993" y1="-4.345" x2="6.093" y2="-4.345"/>
				<line fill="none" stroke="#7E1618" stroke-width="0.025" x1="6.093" y1="-4.345" x2="6.193" y2="-4.345"/>
				<line fill="none" stroke="#7E1618" stroke-width="0.025" x1="6.193" y1="-4.345" x2="6.293" y2="-4.345"/>
				<line fill="none" stroke="#7E1618" stroke-width="0.025" x1="6.293" y1="-4.345" x2="6.393" y2="-4.345"/>
				<line fill="none" stroke="#7E1618" stroke-width="0.025" x1="6.393" y1="-4.345" x2="6.493" y2="-4.345"/>
				<line fill="none" stroke="#7E1618" stroke-width="0.025" x1="6.493" y1="-4.345" x2="6.593" y2="-4.345"/>
				<line fill="none" stroke="#7E1618" stroke-width="0.025" x1="6.593" y1="-4.345" x2="6.693" y2="-4.345"/>
				<line fill="none" stroke="#7E1618" stroke-width="0.025" x1="6.693" y1="-4.345" x2="6.793" y2="-4.345"/>
				<line fill="none" stroke="#7E1618" stroke-width="0.025" x1="6.793" y1="-4.345" x2="6.893" y2="-4.345"/>
				<line fill="none" stroke="#7E1618" stroke-width="0.025" x1="6.893" y1="-4.345" x2="6.993" y2="-4.345"/>
				<line fill="none" stroke="#7E1618" stroke-width="0.025" x1="6.993" y1="-4.345" x2="7.093" y2="-4.345"/>
				<line fill="none" stroke="#7E1618" stroke-width="0.025" x1="7.093" y1="-4.345" x2="7.193" y2="-4.345"/>
				<line fill="none" stroke="#7E1618" stroke-width="0.025" x1="7.193" y1="-4.345" x2="7.293" y2="-4.345"/>
				<line fill="none" stroke="#7E1618" stroke-width="0.025" x1="7.293" y1="-4.345" x2="7.393" y2="-4.345"/>
				<line fill="none" stroke="#7E1618" stroke-width="0.0354" x1="7.393" y1="-4.345" x2="7.493" y2="-4.245"/>
				<line fill="none" stroke="#7E1618" stroke-width="0.0354" x1="7.493" y1="-4.245" x2="7.593" y2="-4.145"/>
				<line fill="none" stroke="#7E1618" stroke-width="0.0354" x1="7.593" y1="-4.145" x2="7.693" y2="-4.045"/>
				<line fill="none" stroke="#7E1618" stroke-width="0.0354" x1="7.693" y1="-4.045" x2="7.793" y2="-3.945"/>
				<line fill="none" stroke="#7E1618" stroke-width="0.0354" x1="7.793" y1="-3.945" x2="7.893" y2="-3.845"/>
				<line fill="none" stroke="#7E1618" stroke-width="0.0354" x1="7.893" y1="-3.845" x2="7.993" y2="-3.745"/>
				<line fill="none" stroke="#7E1618" stroke-width="0.0354" x1="7.993" y1="-3.745" x2="8.093" y2="-3.645"/>
				<line fill="none" stroke="#7E1618" stroke-width="0.0354" x1="8.093" y1="-3.645" x2="8.193" y2="-3.545"/>
				<line fill="none" stroke="#7E1618" stroke-width="0.0354" x1="8.193" y1="-3.545" x2="8.293" y2="-3.445"/>
				<line fill="none" stroke="#7E1618" stroke-width="0.0354" x1="8.293" y1="-3.445" x2="8.393" y2="-3.345"/>
				<line fill="none" stroke="#7E1618" stroke-width="0.0354" x1="8.393" y1="-3.345" x2="8.493" y2="-3.245"/>
				<line fill="none" stroke="#7E1618" stroke-width="0.0354" x1="8.493" y1="-3.245" x2="8.593" y2="-3.145"/>
				<line fill="none" stroke="#7E1618" stroke-width="0.0354" x1="8.593" y1="-3.145" x2="8.693" y2="-3.045"/>
				<line fill="none" stroke="#7E1618" stroke-width="0.0354" x1="8.693" y1="-3.045" x2="8.793" y2="-2.945"/>
				<line fill="none" stroke="#7E1618" stroke-width="0.0354" x1="8.793" y1="-2.945" x2="8.893" y2="-2.845"/>
				<line fill="none" stroke="#7E1618" stroke-width="0.0354" x1="8.893" y1="-2.845" x2="8.993" y2="-2.745"/>
				<line fill="none" stroke="#7E1618" stroke-width="0.0354" x1="8.993" y1="-2.745" x2="9.093" y2="-2.645"/>
				<line fill="none" stroke="#7E1618" stroke-width="0.0354" x1="9.093" y1="-2.645" x2="9.193" y2="-2.545"/>
				<line fill="none" stroke="#7E1618" stroke-width="0.0354" x1="9.193" y1="-2.545" x2="9.293" y2="-2.445"/>
				<line fill="none" stroke="#7E1618" stroke-width="0.0354" x1="9.293" y1="-2.445" x2="9.393" y2="-2.345"/>
				<line fill="none" stroke="#7E1618" stroke-width="0.0354" x1="9.393" y1="-2.345" x2="9.493" y2="-2.245"/>
				<line fill="none" stroke="#7E1618" stroke-width="0.0354" x1="9.493" y1="-2.245" x2="9.593" y2="-2.145"/>
				<line fill="none" stroke="#7E1618" stroke-width="0.0354" x1="9.593" y1="-2.145" x2="9.693" y2="-2.045"/>
				<line fill="none" stroke="#7E1618" stroke-width="0.0354" x1="9.693" y1="-2.045" x2="9.793" y2="-1.945"/>
				<line fill="none" stroke="#7E1618" stroke-width="0.0354" x1="9.793" y1="-1.945" x2="9.893" y2="-1.845"/>
				<line fill="none" stroke="#7E1618" stroke-width="0.0354" x1="9.893" y1="-1.845" x2="9.893" y2="-1.845"/>
				<line fill="none" stroke="#7E1618" stroke-width="0.0354" x1="9.893" y1="-1.845" x2="9.893" y2="-1.845"/>
				<line fill="none" stroke="#7E1618" stroke-width="0.0354" x1="10.093" y1="-1.645" x2="10.093" y2="-1.645"/>
				<line fill="none" stroke="#7E1618" stroke-width="0.0354" x1="9.893" y1="-1.845" x2="9.893" y2="-1.845"/>
				<line fill="none" stroke="#7E1618" stroke-width="0.0354" x1="9.893" y1="-1.845" x2="9.893" y2="-1.845"/>
			</g>
		</g>
	</g>
</g>
<g transform="translate(0.000000 60.000000) scale(20.000000 -20.000000) translate(3.000000 1.500000)">
	<line fill="none" stroke="#C2C0C0" stroke-width="0.01" x1="-2.133" y1="-9.312" x2="-2.133" y2="-6.312"/>
	<line fill="none" stroke="#C2C0C0" stroke-width="0.01" x1="-1.633" y1="-9.312" x2="-1.633" y2="-6.312"/>
	<line fill="none" stroke="#C2C0C0" stroke-width="0.01" x1="-1.133" y1="-9.312" x2="-1.133" y2="-6.312"/>
	<line fill="none" stroke="#C2C0C0" stroke-width="0.01" x1="-0.633" y1="-9.312" x2="-0.633" y2="-6.312"/>
	<line fill="none" stroke="#C2C0C0" stroke-width="0.01" x1="-0.133" y1="-9.312" x2="-0.133" y2="-6.312"/>
	<line fill="none" stroke="#C2C0C0" stroke-width="0.01" x1="0.367" y1="-9.312" x2="0.367" y2="-6.312"/>
	<line fill="none" stroke="#020202" stroke-width="0.01" x1="0.867" y1="-9.312" x2="0.867" y2="-6.312"/>
	<line fill="none" stroke="#C2C0C0" stroke-width="0.01" x1="1.367" y1="-9.312" x2="1.367" y2="-6.312"/>
	<line fill="none" stroke="#C2C0C0" stroke-width="0.01" x1="1.867" y1="-9.312" x2="1.867" y2="-6.312"/>
	<line fill="none" stroke="#C2C0C0" stroke-width="0.01" x1="2.367" y1="-9.312" x2="2.367" y2="-6.312"/>
	<line fill="none" stroke="#C2C0C0" stroke-width="0.01" x1="2.867" y1="-9.312" x2="2.867" y2="-6.312"/>
	<line fill="none" stroke="#C2C0C0" stroke-width="0.01" x1="3.367" y1="-9.312" x2="3.367" y2="-6.312"/>
	<line fill="none" stroke="#C2C0C0" stroke-width="0.01" x1="3.867" y1="-9.312" x2="3.867" y2="-6.312"/>
	<line fill="none" stroke="#C2C0C0" stroke-width="0.01" x1="-2.133" y1="-9.312" x2="3.867" y2="-9.312"/>
	<line fill="none" stroke="#C2C0C0" stroke-width="0.01" x1="-2.133" y1="-8.812" x2="3.867" y2="-8.812"/>
	<line fill="none" stroke="#C2C0C0" stroke-width="0.01" x1="-2.133" y1="-8.312" x2="3.867" y2="-8.312"/>
	<line fill="none" stroke="#020202" stroke-width="0.01" x1="-2.133" y1="-7.812" x2="3.867" y2="-7.812"/>
	<line fill="none" stroke="#C2C0C0" stroke-width="0.01" x1="-2.133" y1="-7.312" x2="3.867" y2="-7.312"/>
	<line fill="none" stroke="#C2C0C0" stroke-width="0.01" x1="-2.133" y1="-6.812" x2="3.867" y2="-6.812"/>
	<line fill="none" stroke="#C2C0C0" stroke-width="0.01" x1="-2.133" y1="-6.312" x2="3.867" y2="-6.312"/>
	<g>
		<g>
			<defs>
				<rect id="SVGID_9_" x="-1199.134" y="-607.811" width="2400.001" height="1199.999"/>
			</defs>
			<clipPath id="SVGID_10_">
				<use xlink:href="#SVGID_9_"  overflow="visible"/>
			</clipPath>
			<g clip-path="url(#SVGID_10_)">
				<line fill="none" stroke="#7E1618" stroke-width="0.0253" x1="-2.133" y1="-8.807" x2="-2.033" y2="-8.806"/>
				<line fill="none" stroke="#7E1618" stroke-width="0.0253" x1="-2.033" y1="-8.806" x2="-1.933" y2="-8.805"/>
				<line fill="none" stroke="#7E1618" stroke-width="0.0254" x1="-1.933" y1="-8.805" x2="-1.833" y2="-8.803"/>
				<line fill="none" stroke="#7E1618" stroke-width="0.0255" x1="-1.833" y1="-8.803" x2="-1.733" y2="-8.801"/>
				<line fill="none" stroke="#7E1618" stroke-width="0.0256" x1="-1.733" y1="-8.801" x2="-1.633" y2="-8.799"/>
				<line fill="none" stroke="#7E1618" stroke-width="0.0257" x1="-1.633" y1="-8.799" x2="-1.533" y2="-8.796"/>
				<line fill="none" stroke="#7E1618" stroke-width="0.0259" x1="-1.533" y1="-8.796" x2="-1.433" y2="-8.792"/>
				<line fill="none" stroke="#7E1618" stroke-width="0.0261" x1="-1.433" y1="-8.792" x2="-1.333" y2="-8.788"/>
				<line fill="none" stroke="#7E1618" stroke-width="0.0263" x1="-1.333" y1="-8.788" x2="-1.233" y2="-8.782"/>
				<line fill="none" stroke="#7E1618" stroke-width="0.0266" x1="-1.233" y1="-8.782" x2="-1.133" y2="-8.776"/>
				<line fill="none" stroke="#7E1618" stroke-width="0.0269" x1="-1.133" y1="-8.776" x2="-1.033" y2="-8.768"/>
				<line fill="none" stroke="#7E1618" stroke-width="0.0272" x1="-1.033" y1="-8.768" x2="-0.933" y2="-8.759"/>
				<line fill="none" stroke="#7E1618" stroke-width="0.0277" x1="-0.933" y1="-8.759" x2="-0.833" y2="-8.747"/>
				<line fill="none" stroke="#7E1618" stroke-width="0.0282" x1="-0.833" y1="-8.747" x2="-0.733" y2="-8.734"/>
				<line fill="none" stroke="#7E1618" stroke-width="0.0287" x1="-0.733" y1="-8.734" x2="-0.633" y2="-8.717"/>
				<line fill="none" stroke="#7E1618" stroke-width="0.0294" x1="-0.633" y1="-8.717" x2="-0.533" y2="-8.697"/>
				<line fill="none" stroke="#7E1618" stroke-width="0.0301" x1="-0.533" y1="-8.697" x2="-0.433" y2="-8.674"/>
				<line fill="none" stroke="#7E1618" stroke-width="0.0308" x1="-0.433" y1="-8.674" x2="-0.333" y2="-8.646"/>
				<line fill="none" stroke="#7E1618" stroke-width="0.0316" x1="-0.333" y1="-8.646" x2="-0.233" y2="-8.612"/>
				<line fill="none" stroke="#7E1618" stroke-width="0.0324" x1="-0.233" y1="-8.612" x2="-0.133" y2="-8.574"/>
				<line fill="none" stroke="#7E1618" stroke-width="0.0331" x1="-0.133" y1="-8.574" x2="-0.033" y2="-8.528"/>
				<line fill="none" stroke="#7E1618" stroke-width="0.0337" x1="-0.033" y1="-8.528" x2="0.067" y2="-8.476"/>
				<line fill="none" stroke="#7E1618" stroke-width="0.0343" x1="0.067" y1="-8.476" x2="0.167" y2="-8.416"/>
				<line fill="none" stroke="#7E1618" stroke-width="0.0347" x1="0.167" y1="-8.416" x2="0.267" y2="-8.349"/>
				<line fill="none" stroke="#7E1618" stroke-width="0.035" x1="0.267" y1="-8.349" x2="0.367" y2="-8.274"/>
				<line fill="none" stroke="#7E1618" stroke-width="0.0352" x1="0.367" y1="-8.274" x2="0.467" y2="-8.192"/>
				<line fill="none" stroke="#7E1618" stroke-width="0.0353" x1="0.467" y1="-8.192" x2="0.567" y2="-8.103"/>
				<line fill="none" stroke="#7E1618" stroke-width="0.0353" x1="0.567" y1="-8.103" x2="0.667" y2="-8.009"/>
				<line fill="none" stroke="#7E1618" stroke-width="0.0354" x1="0.667" y1="-8.009" x2="0.767" y2="-7.912"/>
				<line fill="none" stroke="#7E1618" stroke-width="0.0354" x1="0.767" y1="-7.912" x2="0.867" y2="-7.812"/>
				<line fill="none" stroke="#7E1618" stroke-width="0.0354" x1="0.867" y1="-7.812" x2="0.967" y2="-7.712"/>
				<line fill="none" stroke="#7E1618" stroke-width="0.0354" x1="0.967" y1="-7.712" x2="1.067" y2="-7.615"/>
				<line fill="none" stroke="#7E1618" stroke-width="0.0353" x1="1.067" y1="-7.615" x2="1.167" y2="-7.521"/>
				<line fill="none" stroke="#7E1618" stroke-width="0.0353" x1="1.167" y1="-7.521" x2="1.267" y2="-7.432"/>
				<line fill="none" stroke="#7E1618" stroke-width="0.0352" x1="1.267" y1="-7.432" x2="1.367" y2="-7.35"/>
				<line fill="none" stroke="#7E1618" stroke-width="0.035" x1="1.367" y1="-7.35" x2="1.467" y2="-7.275"/>
				<line fill="none" stroke="#7E1618" stroke-width="0.0347" x1="1.467" y1="-7.275" x2="1.567" y2="-7.208"/>
				<line fill="none" stroke="#7E1618" stroke-width="0.0343" x1="1.567" y1="-7.208" x2="1.667" y2="-7.148"/>
				<line fill="none" stroke="#7E1618" stroke-width="0.0337" x1="1.667" y1="-7.148" x2="1.767" y2="-7.096"/>
				<line fill="none" stroke="#7E1618" stroke-width="0.0331" x1="1.767" y1="-7.096" x2="1.867" y2="-7.05"/>
				<line fill="none" stroke="#7E1618" stroke-width="0.0324" x1="1.867" y1="-7.05" x2="1.967" y2="-7.012"/>
				<line fill="none" stroke="#7E1618" stroke-width="0.0316" x1="1.967" y1="-7.012" x2="2.067" y2="-6.978"/>
				<line fill="none" stroke="#7E1618" stroke-width="0.0308" x1="2.067" y1="-6.978" x2="2.167" y2="-6.95"/>
				<line fill="none" stroke="#7E1618" stroke-width="0.0301" x1="2.167" y1="-6.95" x2="2.267" y2="-6.927"/>
				<line fill="none" stroke="#7E1618" stroke-width="0.0294" x1="2.267" y1="-6.927" x2="2.367" y2="-6.907"/>
				<line fill="none" stroke="#7E1618" stroke-width="0.0287" x1="2.367" y1="-6.907" x2="2.467" y2="-6.89"/>
				<line fill="none" stroke="#7E1618" stroke-width="0.0282" x1="2.467" y1="-6.89" x2="2.567" y2="-6.877"/>
				<line fill="none" stroke="#7E1618" stroke-width="0.0277" x1="2.567" y1="-6.877" x2="2.667" y2="-6.865"/>
				<line fill="none" stroke="#7E1618" stroke-width="0.0272" x1="2.667" y1="-6.865" x2="2.767" y2="-6.856"/>
				<line fill="none" stroke="#7E1618" stroke-width="0.0269" x1="2.767" y1="-6.856" x2="2.867" y2="-6.848"/>
				<line fill="none" stroke="#7E1618" stroke-width="0.0266" x1="2.867" y1="-6.848" x2="2.967" y2="-6.842"/>
				<line fill="none" stroke="#7E1618" stroke-width="0.0263" x1="2.967" y1="-6.842" x2="3.067" y2="-6.836"/>
				<line fill="none" stroke="#7E1618" stroke-width="0.0261" x1="3.067" y1="-6.836" x2="3.167" y2="-6.832"/>
				<line fill="none" stroke="#7E1618" stroke-width="0.0259" x1="3.167" y1="-6.832" x2="3.267" y2="-6.828"/>
				<line fill="none" stroke="#7E1618" stroke-width="0.0257" x1="3.267" y1="-6.828" x2="3.367" y2="-6.825"/>
				<line fill="none" stroke="#7E1618" stroke-width="0.0256" x1="3.367" y1="-6.825" x2="3.467" y2="-6.823"/>
				<line fill="none" stroke="#7E1618" stroke-width="0.0255" x1="3.467" y1="-6.823" x2="3.567" y2="-6.821"/>
				<line fill="none" stroke="#7E1618" stroke-width="0.0254" x1="3.567" y1="-6.821" x2="3.667" y2="-6.819"/>
				<line fill="none" stroke="#7E1618" stroke-width="0.0253" x1="3.667" y1="-6.819" x2="3.767" y2="-6.818"/>
				<line fill="none" stroke="#7E1618" stroke-width="0.0253" x1="3.767" y1="-6.818" x2="3.867" y2="-6.817"/>
			</g>
		</g>
	</g>
</g>
</svg>
