<?xml version="1.0" encoding="utf-8"?>
<!-- Generator: Adobe Illustrator 16.0.0, SVG Export Plug-In . SVG Version: 6.00 Build 0)  -->
<!DOCTYPE svg PUBLIC "-//W3C//DTD SVG 1.1//EN" "http://www.w3.org/Graphics/SVG/1.1/DTD/svg11.dtd">
<svg version="1.1" id="Layer_1" xmlns="http://www.w3.org/2000/svg" xmlns:xlink="http://www.w3.org/1999/xlink" x="0px" y="0px"
	 width="708.66px" height="141.73px" viewBox="0 0 708.66 141.73" enable-background="new 0 0 708.66 141.73" xml:space="preserve">
<g transform="translate(0.000000 60.000000) scale(30.000000 -30.000000) translate(2.000000 0.500000)">
	<line fill="none" stroke="#C1C0C0" stroke-width="0.0067" x1="-1.227" y1="-1.867" x2="-1.227" y2="0.133"/>
	<line fill="none" stroke="#C1C0C0" stroke-width="0.0067" x1="-0.727" y1="-1.867" x2="-0.727" y2="0.133"/>
	<line fill="none" stroke="#C1C0C0" stroke-width="0.0067" x1="-0.227" y1="-1.867" x2="-0.227" y2="0.133"/>
	<line fill="none" stroke="#C1C0C0" stroke-width="0.0067" x1="0.273" y1="-1.867" x2="0.273" y2="0.133"/>
	<line fill="none" stroke="#010101" stroke-width="0.0067" x1="0.773" y1="-1.867" x2="0.773" y2="0.133"/>
	<line fill="none" stroke="#C1C0C0" stroke-width="0.0067" x1="1.273" y1="-1.867" x2="1.273" y2="0.133"/>
	<line fill="none" stroke="#C1C0C0" stroke-width="0.0067" x1="1.773" y1="-1.867" x2="1.773" y2="0.133"/>
	<line fill="none" stroke="#C1C0C0" stroke-width="0.0067" x1="2.273" y1="-1.867" x2="2.273" y2="0.133"/>
	<line fill="none" stroke="#C1C0C0" stroke-width="0.0067" x1="2.773" y1="-1.867" x2="2.773" y2="0.133"/>
	<line fill="none" stroke="#C1C0C0" stroke-width="0.0067" x1="-1.227" y1="-1.867" x2="2.773" y2="-1.867"/>
	<line fill="none" stroke="#010101" stroke-width="0.0067" x1="-1.227" y1="-1.367" x2="2.773" y2="-1.367"/>
	<line fill="none" stroke="#C1C0C0" stroke-width="0.0067" x1="-1.227" y1="-0.867" x2="2.773" y2="-0.867"/>
	<line fill="none" stroke="#C1C0C0" stroke-width="0.0067" x1="-1.227" y1="-0.367" x2="2.773" y2="-0.367"/>
	<line fill="none" stroke="#C1C0C0" stroke-width="0.0067" x1="-1.227" y1="0.133" x2="2.773" y2="0.133"/>
	<g>
		<defs>
			<rect id="SVGID_1_" x="-59.227" y="-30.867" width="120" height="60"/>
		</defs>
		<clipPath id="SVGID_2_">
			<use xlink:href="#SVGID_1_"  overflow="visible"/>
		</clipPath>
		<g clip-path="url(#SVGID_2_)">
			<line fill="none" stroke="#7E1416" stroke-width="0.0167" x1="-1.227" y1="-1.367" x2="-1.161" y2="-1.367"/>
			<line fill="none" stroke="#7E1416" stroke-width="0.0167" x1="-1.161" y1="-1.367" x2="-1.094" y2="-1.367"/>
			<line fill="none" stroke="#7E1416" stroke-width="0.0167" x1="-1.094" y1="-1.367" x2="-1.027" y2="-1.367"/>
			<line fill="none" stroke="#7E1416" stroke-width="0.0167" x1="-1.027" y1="-1.367" x2="-0.961" y2="-1.367"/>
			<line fill="none" stroke="#7E1416" stroke-width="0.0167" x1="-0.961" y1="-1.367" x2="-0.894" y2="-1.367"/>
			<line fill="none" stroke="#7E1416" stroke-width="0.0167" x1="-0.894" y1="-1.367" x2="-0.827" y2="-1.367"/>
			<line fill="none" stroke="#7E1416" stroke-width="0.0167" x1="-0.827" y1="-1.367" x2="-0.761" y2="-1.367"/>
			<line fill="none" stroke="#7E1416" stroke-width="0.0167" x1="-0.761" y1="-1.367" x2="-0.694" y2="-1.367"/>
			<line fill="none" stroke="#7E1416" stroke-width="0.0167" x1="-0.694" y1="-1.367" x2="-0.627" y2="-1.367"/>
			<line fill="none" stroke="#7E1416" stroke-width="0.0167" x1="-0.627" y1="-1.367" x2="-0.561" y2="-1.367"/>
			<line fill="none" stroke="#7E1416" stroke-width="0.0167" x1="-0.561" y1="-1.367" x2="-0.494" y2="-1.367"/>
			<line fill="none" stroke="#7E1416" stroke-width="0.0167" x1="-0.494" y1="-1.367" x2="-0.427" y2="-1.367"/>
			<line fill="none" stroke="#7E1416" stroke-width="0.0167" x1="-0.427" y1="-1.367" x2="-0.361" y2="-1.367"/>
			<line fill="none" stroke="#7E1416" stroke-width="0.0167" x1="-0.361" y1="-1.367" x2="-0.294" y2="-1.367"/>
			<line fill="none" stroke="#7E1416" stroke-width="0.0167" x1="-0.294" y1="-1.367" x2="-0.227" y2="-1.367"/>
			<line fill="none" stroke="#7E1416" stroke-width="0.0167" x1="-0.227" y1="-1.367" x2="-0.161" y2="-1.367"/>
			<line fill="none" stroke="#7E1416" stroke-width="0.0167" x1="-0.161" y1="-1.367" x2="-0.094" y2="-1.367"/>
			<line fill="none" stroke="#7E1416" stroke-width="0.0167" x1="-0.094" y1="-1.367" x2="-0.027" y2="-1.367"/>
			<line fill="none" stroke="#7E1416" stroke-width="0.0167" x1="-0.027" y1="-1.367" x2="0.039" y2="-1.367"/>
			<line fill="none" stroke="#7E1416" stroke-width="0.0167" x1="0.039" y1="-1.367" x2="0.106" y2="-1.367"/>
			<line fill="none" stroke="#7E1416" stroke-width="0.0167" x1="0.106" y1="-1.367" x2="0.173" y2="-1.367"/>
			<line fill="none" stroke="#7E1416" stroke-width="0.0167" x1="0.173" y1="-1.367" x2="0.239" y2="-1.367"/>
			<line fill="none" stroke="#7E1416" stroke-width="0.0167" x1="0.239" y1="-1.367" x2="0.306" y2="-1.367"/>
			<line fill="none" stroke="#7E1416" stroke-width="0.0167" x1="0.306" y1="-1.367" x2="0.373" y2="-1.367"/>
			<line fill="none" stroke="#7E1416" stroke-width="0.0167" x1="0.373" y1="-1.367" x2="0.439" y2="-1.367"/>
			<line fill="none" stroke="#7E1416" stroke-width="0.0167" x1="0.439" y1="-1.367" x2="0.506" y2="-1.367"/>
			<line fill="none" stroke="#7E1416" stroke-width="0.0167" x1="0.506" y1="-1.367" x2="0.573" y2="-1.367"/>
			<line fill="none" stroke="#7E1416" stroke-width="0.0167" x1="0.573" y1="-1.367" x2="0.639" y2="-1.367"/>
			<line fill="none" stroke="#7E1416" stroke-width="0.0167" x1="0.639" y1="-1.367" x2="0.706" y2="-1.367"/>
			<line fill="none" stroke="#7E1416" stroke-width="0.0167" x1="0.706" y1="-1.367" x2="0.773" y2="-1.367"/>
			<line fill="none" stroke="#7E1416" stroke-width="0.0177" x1="0.773" y1="-1.367" x2="0.839" y2="-0.367"/>
			<line fill="none" stroke="#7E1416" stroke-width="0.0167" x1="0.839" y1="-0.367" x2="0.906" y2="-0.367"/>
			<line fill="none" stroke="#7E1416" stroke-width="0.0167" x1="0.906" y1="-0.367" x2="0.973" y2="-0.367"/>
			<line fill="none" stroke="#7E1416" stroke-width="0.0167" x1="0.973" y1="-0.367" x2="1.039" y2="-0.367"/>
			<line fill="none" stroke="#7E1416" stroke-width="0.0167" x1="1.039" y1="-0.367" x2="1.106" y2="-0.367"/>
			<line fill="none" stroke="#7E1416" stroke-width="0.0167" x1="1.106" y1="-0.367" x2="1.173" y2="-0.367"/>
			<line fill="none" stroke="#7E1416" stroke-width="0.0167" x1="1.173" y1="-0.367" x2="1.239" y2="-0.367"/>
			<line fill="none" stroke="#7E1416" stroke-width="0.0167" x1="1.239" y1="-0.367" x2="1.306" y2="-0.367"/>
			<line fill="none" stroke="#7E1416" stroke-width="0.0167" x1="1.306" y1="-0.367" x2="1.373" y2="-0.367"/>
			<line fill="none" stroke="#7E1416" stroke-width="0.0167" x1="1.373" y1="-0.367" x2="1.439" y2="-0.367"/>
			<line fill="none" stroke="#7E1416" stroke-width="0.0167" x1="1.439" y1="-0.367" x2="1.506" y2="-0.367"/>
			<line fill="none" stroke="#7E1416" stroke-width="0.0167" x1="1.506" y1="-0.367" x2="1.573" y2="-0.367"/>
			<line fill="none" stroke="#7E1416" stroke-width="0.0167" x1="1.573" y1="-0.367" x2="1.639" y2="-0.367"/>
			<line fill="none" stroke="#7E1416" stroke-width="0.0167" x1="1.639" y1="-0.367" x2="1.706" y2="-0.367"/>
			<line fill="none" stroke="#7E1416" stroke-width="0.0167" x1="1.706" y1="-0.367" x2="1.773" y2="-0.367"/>
			<line fill="none" stroke="#7E1416" stroke-width="0.0167" x1="1.773" y1="-0.367" x2="1.839" y2="-0.367"/>
			<line fill="none" stroke="#7E1416" stroke-width="0.0167" x1="1.839" y1="-0.367" x2="1.906" y2="-0.367"/>
			<line fill="none" stroke="#7E1416" stroke-width="0.0167" x1="1.906" y1="-0.367" x2="1.973" y2="-0.367"/>
			<line fill="none" stroke="#7E1416" stroke-width="0.0167" x1="1.973" y1="-0.367" x2="2.039" y2="-0.367"/>
			<line fill="none" stroke="#7E1416" stroke-width="0.0167" x1="2.039" y1="-0.367" x2="2.106" y2="-0.367"/>
			<line fill="none" stroke="#7E1416" stroke-width="0.0167" x1="2.106" y1="-0.367" x2="2.173" y2="-0.367"/>
			<line fill="none" stroke="#7E1416" stroke-width="0.0167" x1="2.173" y1="-0.367" x2="2.239" y2="-0.367"/>
			<line fill="none" stroke="#7E1416" stroke-width="0.0167" x1="2.239" y1="-0.367" x2="2.306" y2="-0.367"/>
			<line fill="none" stroke="#7E1416" stroke-width="0.0167" x1="2.306" y1="-0.367" x2="2.373" y2="-0.367"/>
			<line fill="none" stroke="#7E1416" stroke-width="0.0167" x1="2.373" y1="-0.367" x2="2.439" y2="-0.367"/>
			<line fill="none" stroke="#7E1416" stroke-width="0.0167" x1="2.439" y1="-0.367" x2="2.506" y2="-0.367"/>
			<line fill="none" stroke="#7E1416" stroke-width="0.0167" x1="2.506" y1="-0.367" x2="2.573" y2="-0.367"/>
			<line fill="none" stroke="#7E1416" stroke-width="0.0167" x1="2.573" y1="-0.367" x2="2.639" y2="-0.367"/>
			<line fill="none" stroke="#7E1416" stroke-width="0.0167" x1="2.639" y1="-0.367" x2="2.706" y2="-0.367"/>
			<line fill="none" stroke="#7E1416" stroke-width="0.0167" x1="2.706" y1="-0.367" x2="2.773" y2="-0.367"/>
			<line fill="none" stroke="#7E1416" stroke-width="0.0167" x1="2.773" y1="-0.367" x2="2.839" y2="-0.367"/>
		</g>
	</g>
</g>
<g transform="translate(0.000000 60.000000) scale(20.000000 -20.000000) translate(3.000000 1.500000)">
	<line fill="none" stroke="#C1C0C0" stroke-width="0.01" x1="4.858" y1="-3.55" x2="4.858" y2="-0.55"/>
	<line fill="none" stroke="#C1C0C0" stroke-width="0.01" x1="5.358" y1="-3.55" x2="5.358" y2="-0.55"/>
	<line fill="none" stroke="#C1C0C0" stroke-width="0.01" x1="5.858" y1="-3.55" x2="5.858" y2="-0.55"/>
	<line fill="none" stroke="#C1C0C0" stroke-width="0.01" x1="6.358" y1="-3.55" x2="6.358" y2="-0.55"/>
	<line fill="none" stroke="#C1C0C0" stroke-width="0.01" x1="6.858" y1="-3.55" x2="6.858" y2="-0.55"/>
	<line fill="none" stroke="#C1C0C0" stroke-width="0.01" x1="7.358" y1="-3.55" x2="7.358" y2="-0.55"/>
	<line fill="none" stroke="#010101" stroke-width="0.01" x1="7.858" y1="-3.55" x2="7.858" y2="-0.55"/>
	<line fill="none" stroke="#C1C0C0" stroke-width="0.01" x1="8.358" y1="-3.55" x2="8.358" y2="-0.55"/>
	<line fill="none" stroke="#C1C0C0" stroke-width="0.01" x1="8.858" y1="-3.55" x2="8.858" y2="-0.55"/>
	<line fill="none" stroke="#C1C0C0" stroke-width="0.01" x1="9.358" y1="-3.55" x2="9.358" y2="-0.55"/>
	<line fill="none" stroke="#C1C0C0" stroke-width="0.01" x1="9.858" y1="-3.55" x2="9.858" y2="-0.55"/>
	<line fill="none" stroke="#C1C0C0" stroke-width="0.01" x1="10.358" y1="-3.55" x2="10.358" y2="-0.55"/>
	<line fill="none" stroke="#C1C0C0" stroke-width="0.01" x1="10.858" y1="-3.55" x2="10.858" y2="-0.55"/>
	<line fill="none" stroke="#C1C0C0" stroke-width="0.01" x1="4.858" y1="-3.55" x2="10.858" y2="-3.55"/>
	<line fill="none" stroke="#C1C0C0" stroke-width="0.01" x1="4.858" y1="-3.05" x2="10.858" y2="-3.05"/>
	<line fill="none" stroke="#C1C0C0" stroke-width="0.01" x1="4.858" y1="-2.55" x2="10.858" y2="-2.55"/>
	<line fill="none" stroke="#010101" stroke-width="0.01" x1="4.858" y1="-2.05" x2="10.858" y2="-2.05"/>
	<line fill="none" stroke="#C1C0C0" stroke-width="0.01" x1="4.858" y1="-1.55" x2="10.858" y2="-1.55"/>
	<line fill="none" stroke="#C1C0C0" stroke-width="0.01" x1="4.858" y1="-1.05" x2="10.858" y2="-1.05"/>
	<line fill="none" stroke="#C1C0C0" stroke-width="0.01" x1="4.858" y1="-0.55" x2="10.858" y2="-0.55"/>
	<g>
		<defs>
			<rect id="SVGID_3_" x="-52.142" y="-32.05" width="120" height="60"/>
		</defs>
		<clipPath id="SVGID_4_">
			<use xlink:href="#SVGID_3_"  overflow="visible"/>
		</clipPath>
		<g clip-path="url(#SVGID_4_)">
			<line fill="none" stroke="#7E1416" stroke-width="0.0354" x1="4.858" y1="-5.05" x2="4.958" y2="-4.95"/>
			<line fill="none" stroke="#7E1416" stroke-width="0.0354" x1="4.958" y1="-4.95" x2="5.058" y2="-4.85"/>
			<line fill="none" stroke="#7E1416" stroke-width="0.0354" x1="5.058" y1="-4.85" x2="5.158" y2="-4.75"/>
			<line fill="none" stroke="#7E1416" stroke-width="0.0354" x1="5.158" y1="-4.75" x2="5.258" y2="-4.65"/>
			<line fill="none" stroke="#7E1416" stroke-width="0.0354" x1="5.258" y1="-4.65" x2="5.358" y2="-4.55"/>
			<line fill="none" stroke="#7E1416" stroke-width="0.0354" x1="5.358" y1="-4.55" x2="5.458" y2="-4.45"/>
			<line fill="none" stroke="#7E1416" stroke-width="0.0354" x1="5.458" y1="-4.45" x2="5.558" y2="-4.35"/>
			<line fill="none" stroke="#7E1416" stroke-width="0.0354" x1="5.558" y1="-4.35" x2="5.658" y2="-4.25"/>
			<line fill="none" stroke="#7E1416" stroke-width="0.0354" x1="5.658" y1="-4.25" x2="5.758" y2="-4.15"/>
			<line fill="none" stroke="#7E1416" stroke-width="0.0354" x1="5.758" y1="-4.15" x2="5.858" y2="-4.05"/>
			<line fill="none" stroke="#7E1416" stroke-width="0.0354" x1="5.858" y1="-4.05" x2="5.958" y2="-3.95"/>
			<line fill="none" stroke="#7E1416" stroke-width="0.0354" x1="5.958" y1="-3.95" x2="6.058" y2="-3.85"/>
			<line fill="none" stroke="#7E1416" stroke-width="0.0354" x1="6.058" y1="-3.85" x2="6.158" y2="-3.75"/>
			<line fill="none" stroke="#7E1416" stroke-width="0.0354" x1="6.158" y1="-3.75" x2="6.258" y2="-3.65"/>
			<line fill="none" stroke="#7E1416" stroke-width="0.0354" x1="6.258" y1="-3.65" x2="6.358" y2="-3.55"/>
			<line fill="none" stroke="#7E1416" stroke-width="0.0354" x1="6.358" y1="-3.55" x2="6.458" y2="-3.45"/>
			<line fill="none" stroke="#7E1416" stroke-width="0.0354" x1="6.458" y1="-3.45" x2="6.558" y2="-3.35"/>
			<line fill="none" stroke="#7E1416" stroke-width="0.0354" x1="6.558" y1="-3.35" x2="6.658" y2="-3.25"/>
			<line fill="none" stroke="#7E1416" stroke-width="0.0354" x1="6.658" y1="-3.25" x2="6.758" y2="-3.15"/>
			<line fill="none" stroke="#7E1416" stroke-width="0.0354" x1="6.758" y1="-3.15" x2="6.858" y2="-3.05"/>
			<line fill="none" stroke="#7E1416" stroke-width="0.0354" x1="6.858" y1="-3.05" x2="6.958" y2="-2.95"/>
			<line fill="none" stroke="#7E1416" stroke-width="0.0354" x1="6.958" y1="-2.95" x2="7.058" y2="-2.85"/>
			<line fill="none" stroke="#7E1416" stroke-width="0.0354" x1="7.058" y1="-2.85" x2="7.158" y2="-2.75"/>
			<line fill="none" stroke="#7E1416" stroke-width="0.0354" x1="7.158" y1="-2.75" x2="7.258" y2="-2.65"/>
			<line fill="none" stroke="#7E1416" stroke-width="0.0354" x1="7.258" y1="-2.65" x2="7.358" y2="-2.55"/>
			<line fill="none" stroke="#7E1416" stroke-width="0.0354" x1="7.358" y1="-2.55" x2="7.458" y2="-2.45"/>
			<line fill="none" stroke="#7E1416" stroke-width="0.0354" x1="7.458" y1="-2.45" x2="7.558" y2="-2.35"/>
			<line fill="none" stroke="#7E1416" stroke-width="0.0354" x1="7.558" y1="-2.35" x2="7.658" y2="-2.25"/>
			<line fill="none" stroke="#7E1416" stroke-width="0.0354" x1="7.658" y1="-2.25" x2="7.758" y2="-2.15"/>
			<line fill="none" stroke="#7E1416" stroke-width="0.0354" x1="7.758" y1="-2.15" x2="7.858" y2="-2.05"/>
			<line fill="none" stroke="#7E1416" stroke-width="0.0354" x1="7.858" y1="-2.05" x2="7.958" y2="-1.95"/>
			<line fill="none" stroke="#7E1416" stroke-width="0.0354" x1="7.958" y1="-1.95" x2="8.058" y2="-1.85"/>
			<line fill="none" stroke="#7E1416" stroke-width="0.0354" x1="8.058" y1="-1.85" x2="8.158" y2="-1.75"/>
			<line fill="none" stroke="#7E1416" stroke-width="0.0354" x1="8.158" y1="-1.75" x2="8.258" y2="-1.65"/>
			<line fill="none" stroke="#7E1416" stroke-width="0.0354" x1="8.258" y1="-1.65" x2="8.358" y2="-1.55"/>
			<line fill="none" stroke="#7E1416" stroke-width="0.0354" x1="8.358" y1="-1.55" x2="8.458" y2="-1.45"/>
			<line fill="none" stroke="#7E1416" stroke-width="0.0354" x1="8.458" y1="-1.45" x2="8.558" y2="-1.35"/>
			<line fill="none" stroke="#7E1416" stroke-width="0.0354" x1="8.558" y1="-1.35" x2="8.658" y2="-1.25"/>
			<line fill="none" stroke="#7E1416" stroke-width="0.0354" x1="8.658" y1="-1.25" x2="8.758" y2="-1.15"/>
			<line fill="none" stroke="#7E1416" stroke-width="0.0354" x1="8.758" y1="-1.15" x2="8.858" y2="-1.05"/>
			<line fill="none" stroke="#7E1416" stroke-width="0.0354" x1="8.858" y1="-1.05" x2="8.958" y2="-0.95"/>
			<line fill="none" stroke="#7E1416" stroke-width="0.0354" x1="8.958" y1="-0.95" x2="9.058" y2="-0.85"/>
			<line fill="none" stroke="#7E1416" stroke-width="0.0354" x1="9.058" y1="-0.85" x2="9.158" y2="-0.75"/>
			<line fill="none" stroke="#7E1416" stroke-width="0.0354" x1="9.158" y1="-0.75" x2="9.258" y2="-0.65"/>
			<line fill="none" stroke="#7E1416" stroke-width="0.0354" x1="9.258" y1="-0.65" x2="9.358" y2="-0.55"/>
			<line fill="none" stroke="#7E1416" stroke-width="0.0354" x1="9.358" y1="-0.55" x2="9.458" y2="-0.45"/>
			<line fill="none" stroke="#7E1416" stroke-width="0.0354" x1="9.458" y1="-0.45" x2="9.558" y2="-0.35"/>
			<line fill="none" stroke="#7E1416" stroke-width="0.0354" x1="9.558" y1="-0.35" x2="9.658" y2="-0.25"/>
			<line fill="none" stroke="#7E1416" stroke-width="0.0354" x1="9.658" y1="-0.25" x2="9.758" y2="-0.15"/>
			<line fill="none" stroke="#7E1416" stroke-width="0.0354" x1="9.758" y1="-0.15" x2="9.858" y2="-0.05"/>
			<line fill="none" stroke="#7E1416" stroke-width="0.0354" x1="9.858" y1="-0.05" x2="9.958" y2="0.05"/>
			<line fill="none" stroke="#7E1416" stroke-width="0.0354" x1="9.958" y1="0.05" x2="10.058" y2="0.15"/>
			<line fill="none" stroke="#7E1416" stroke-width="0.0354" x1="10.058" y1="0.15" x2="10.158" y2="0.25"/>
			<line fill="none" stroke="#7E1416" stroke-width="0.0354" x1="10.158" y1="0.25" x2="10.258" y2="0.35"/>
			<line fill="none" stroke="#7E1416" stroke-width="0.0354" x1="10.258" y1="0.35" x2="10.358" y2="0.45"/>
			<line fill="none" stroke="#7E1416" stroke-width="0.0354" x1="10.358" y1="0.45" x2="10.458" y2="0.55"/>
			<line fill="none" stroke="#7E1416" stroke-width="0.0354" x1="10.458" y1="0.55" x2="10.558" y2="0.65"/>
			<line fill="none" stroke="#7E1416" stroke-width="0.0354" x1="10.558" y1="0.65" x2="10.658" y2="0.75"/>
			<line fill="none" stroke="#7E1416" stroke-width="0.0354" x1="10.658" y1="0.75" x2="10.758" y2="0.85"/>
			<line fill="none" stroke="#7E1416" stroke-width="0.0354" x1="10.758" y1="0.85" x2="10.858" y2="0.95"/>
		</g>
	</g>
</g>
<g transform="translate(0.000000 60.000000) scale(20.000000 -20.000000) translate(3.000000 1.000000)">
	<line fill="none" stroke="#C1C0C0" stroke-width="0.01" x1="11.635" y1="-3.05" x2="11.635" y2="-0.05"/>
	<line fill="none" stroke="#C1C0C0" stroke-width="0.01" x1="12.135" y1="-3.05" x2="12.135" y2="-0.05"/>
	<line fill="none" stroke="#C1C0C0" stroke-width="0.01" x1="12.635" y1="-3.05" x2="12.635" y2="-0.05"/>
	<line fill="none" stroke="#C1C0C0" stroke-width="0.01" x1="13.135" y1="-3.05" x2="13.135" y2="-0.05"/>
	<line fill="none" stroke="#C1C0C0" stroke-width="0.01" x1="13.635" y1="-3.05" x2="13.635" y2="-0.05"/>
	<line fill="none" stroke="#C1C0C0" stroke-width="0.01" x1="14.135" y1="-3.05" x2="14.135" y2="-0.05"/>
	<line fill="none" stroke="#010101" stroke-width="0.01" x1="14.635" y1="-3.05" x2="14.635" y2="-0.05"/>
	<line fill="none" stroke="#C1C0C0" stroke-width="0.01" x1="15.135" y1="-3.05" x2="15.135" y2="-0.05"/>
	<line fill="none" stroke="#C1C0C0" stroke-width="0.01" x1="15.635" y1="-3.05" x2="15.635" y2="-0.05"/>
	<line fill="none" stroke="#C1C0C0" stroke-width="0.01" x1="16.135" y1="-3.05" x2="16.135" y2="-0.05"/>
	<line fill="none" stroke="#C1C0C0" stroke-width="0.01" x1="16.635" y1="-3.05" x2="16.635" y2="-0.05"/>
	<line fill="none" stroke="#C1C0C0" stroke-width="0.01" x1="17.135" y1="-3.05" x2="17.135" y2="-0.05"/>
	<line fill="none" stroke="#C1C0C0" stroke-width="0.01" x1="17.635" y1="-3.05" x2="17.635" y2="-0.05"/>
	<line fill="none" stroke="#C1C0C0" stroke-width="0.01" x1="11.635" y1="-3.05" x2="17.635" y2="-3.05"/>
	<line fill="none" stroke="#C1C0C0" stroke-width="0.01" x1="11.635" y1="-2.55" x2="17.635" y2="-2.55"/>
	<line fill="none" stroke="#010101" stroke-width="0.01" x1="11.635" y1="-2.05" x2="17.635" y2="-2.05"/>
	<line fill="none" stroke="#C1C0C0" stroke-width="0.01" x1="11.635" y1="-1.55" x2="17.635" y2="-1.55"/>
	<line fill="none" stroke="#C1C0C0" stroke-width="0.01" x1="11.635" y1="-1.05" x2="17.635" y2="-1.05"/>
	<line fill="none" stroke="#C1C0C0" stroke-width="0.01" x1="11.635" y1="-0.55" x2="17.635" y2="-0.55"/>
	<line fill="none" stroke="#C1C0C0" stroke-width="0.01" x1="11.635" y1="-0.05" x2="17.635" y2="-0.05"/>
	<g>
		<defs>
			<rect id="SVGID_5_" x="-45.365" y="-31.55" width="120" height="60"/>
		</defs>
		<clipPath id="SVGID_6_">
			<use xlink:href="#SVGID_5_"  overflow="visible"/>
		</clipPath>
		<g clip-path="url(#SVGID_6_)">
			<line fill="none" stroke="#7E1416" stroke-width="0.0262" x1="11.635" y1="-2.003" x2="11.735" y2="-1.998"/>
			<line fill="none" stroke="#7E1416" stroke-width="0.0263" x1="11.735" y1="-1.998" x2="11.835" y2="-1.993"/>
			<line fill="none" stroke="#7E1416" stroke-width="0.0264" x1="11.835" y1="-1.993" x2="11.935" y2="-1.987"/>
			<line fill="none" stroke="#7E1416" stroke-width="0.0265" x1="11.935" y1="-1.987" x2="12.035" y2="-1.981"/>
			<line fill="none" stroke="#7E1416" stroke-width="0.0266" x1="12.035" y1="-1.981" x2="12.135" y2="-1.974"/>
			<line fill="none" stroke="#7E1416" stroke-width="0.0268" x1="12.135" y1="-1.974" x2="12.235" y2="-1.967"/>
			<line fill="none" stroke="#7E1416" stroke-width="0.0269" x1="12.235" y1="-1.967" x2="12.335" y2="-1.959"/>
			<line fill="none" stroke="#7E1416" stroke-width="0.0271" x1="12.335" y1="-1.959" x2="12.435" y2="-1.95"/>
			<line fill="none" stroke="#7E1416" stroke-width="0.0272" x1="12.435" y1="-1.95" x2="12.535" y2="-1.941"/>
			<line fill="none" stroke="#7E1416" stroke-width="0.0274" x1="12.535" y1="-1.941" x2="12.635" y2="-1.931"/>
			<line fill="none" stroke="#7E1416" stroke-width="0.0276" x1="12.635" y1="-1.931" x2="12.735" y2="-1.92"/>
			<line fill="none" stroke="#7E1416" stroke-width="0.0277" x1="12.735" y1="-1.92" x2="12.835" y2="-1.908"/>
			<line fill="none" stroke="#7E1416" stroke-width="0.0279" x1="12.835" y1="-1.908" x2="12.935" y2="-1.896"/>
			<line fill="none" stroke="#7E1416" stroke-width="0.0281" x1="12.935" y1="-1.896" x2="13.035" y2="-1.882"/>
			<line fill="none" stroke="#7E1416" stroke-width="0.0283" x1="13.035" y1="-1.882" x2="13.135" y2="-1.868"/>
			<line fill="none" stroke="#7E1416" stroke-width="0.0285" x1="13.135" y1="-1.868" x2="13.235" y2="-1.852"/>
			<line fill="none" stroke="#7E1416" stroke-width="0.0287" x1="13.235" y1="-1.852" x2="13.335" y2="-1.836"/>
			<line fill="none" stroke="#7E1416" stroke-width="0.0289" x1="13.335" y1="-1.836" x2="13.435" y2="-1.819"/>
			<line fill="none" stroke="#7E1416" stroke-width="0.0291" x1="13.435" y1="-1.819" x2="13.535" y2="-1.8"/>
			<line fill="none" stroke="#7E1416" stroke-width="0.0293" x1="13.535" y1="-1.8" x2="13.635" y2="-1.781"/>
			<line fill="none" stroke="#7E1416" stroke-width="0.0294" x1="13.635" y1="-1.781" x2="13.735" y2="-1.761"/>
			<line fill="none" stroke="#7E1416" stroke-width="0.0296" x1="13.735" y1="-1.761" x2="13.835" y2="-1.74"/>
			<line fill="none" stroke="#7E1416" stroke-width="0.0297" x1="13.835" y1="-1.74" x2="13.935" y2="-1.718"/>
			<line fill="none" stroke="#7E1416" stroke-width="0.0299" x1="13.935" y1="-1.718" x2="14.035" y2="-1.696"/>
			<line fill="none" stroke="#7E1416" stroke-width="0.03" x1="14.035" y1="-1.696" x2="14.135" y2="-1.672"/>
			<line fill="none" stroke="#7E1416" stroke-width="0.0301" x1="14.135" y1="-1.672" x2="14.235" y2="-1.649"/>
			<line fill="none" stroke="#7E1416" stroke-width="0.0302" x1="14.235" y1="-1.649" x2="14.335" y2="-1.624"/>
			<line fill="none" stroke="#7E1416" stroke-width="0.0302" x1="14.335" y1="-1.624" x2="14.435" y2="-1.6"/>
			<line fill="none" stroke="#7E1416" stroke-width="0.0303" x1="14.435" y1="-1.6" x2="14.535" y2="-1.575"/>
			<line fill="none" stroke="#7E1416" stroke-width="0.0303" x1="14.535" y1="-1.575" x2="14.635" y2="-1.55"/>
			<line fill="none" stroke="#7E1416" stroke-width="0.0303" x1="14.635" y1="-1.55" x2="14.735" y2="-1.525"/>
			<line fill="none" stroke="#7E1416" stroke-width="0.0303" x1="14.735" y1="-1.525" x2="14.835" y2="-1.5"/>
			<line fill="none" stroke="#7E1416" stroke-width="0.0302" x1="14.835" y1="-1.5" x2="14.935" y2="-1.476"/>
			<line fill="none" stroke="#7E1416" stroke-width="0.0302" x1="14.935" y1="-1.476" x2="15.035" y2="-1.451"/>
			<line fill="none" stroke="#7E1416" stroke-width="0.0301" x1="15.035" y1="-1.451" x2="15.135" y2="-1.428"/>
			<line fill="none" stroke="#7E1416" stroke-width="0.03" x1="15.135" y1="-1.428" x2="15.235" y2="-1.404"/>
			<line fill="none" stroke="#7E1416" stroke-width="0.0299" x1="15.235" y1="-1.404" x2="15.335" y2="-1.382"/>
			<line fill="none" stroke="#7E1416" stroke-width="0.0297" x1="15.335" y1="-1.382" x2="15.435" y2="-1.36"/>
			<line fill="none" stroke="#7E1416" stroke-width="0.0296" x1="15.435" y1="-1.36" x2="15.535" y2="-1.339"/>
			<line fill="none" stroke="#7E1416" stroke-width="0.0294" x1="15.535" y1="-1.339" x2="15.635" y2="-1.319"/>
			<line fill="none" stroke="#7E1416" stroke-width="0.0293" x1="15.635" y1="-1.319" x2="15.735" y2="-1.3"/>
			<line fill="none" stroke="#7E1416" stroke-width="0.0291" x1="15.735" y1="-1.3" x2="15.835" y2="-1.281"/>
			<line fill="none" stroke="#7E1416" stroke-width="0.0289" x1="15.835" y1="-1.281" x2="15.935" y2="-1.264"/>
			<line fill="none" stroke="#7E1416" stroke-width="0.0287" x1="15.935" y1="-1.264" x2="16.035" y2="-1.248"/>
			<line fill="none" stroke="#7E1416" stroke-width="0.0285" x1="16.035" y1="-1.248" x2="16.135" y2="-1.232"/>
			<line fill="none" stroke="#7E1416" stroke-width="0.0283" x1="16.135" y1="-1.232" x2="16.235" y2="-1.218"/>
			<line fill="none" stroke="#7E1416" stroke-width="0.0281" x1="16.235" y1="-1.218" x2="16.335" y2="-1.204"/>
			<line fill="none" stroke="#7E1416" stroke-width="0.0279" x1="16.335" y1="-1.204" x2="16.435" y2="-1.192"/>
			<line fill="none" stroke="#7E1416" stroke-width="0.0277" x1="16.435" y1="-1.192" x2="16.535" y2="-1.18"/>
			<line fill="none" stroke="#7E1416" stroke-width="0.0276" x1="16.535" y1="-1.18" x2="16.635" y2="-1.169"/>
			<line fill="none" stroke="#7E1416" stroke-width="0.0274" x1="16.635" y1="-1.169" x2="16.735" y2="-1.159"/>
			<line fill="none" stroke="#7E1416" stroke-width="0.0272" x1="16.735" y1="-1.159" x2="16.835" y2="-1.15"/>
			<line fill="none" stroke="#7E1416" stroke-width="0.0271" x1="16.835" y1="-1.15" x2="16.935" y2="-1.141"/>
			<line fill="none" stroke="#7E1416" stroke-width="0.0269" x1="16.935" y1="-1.141" x2="17.035" y2="-1.133"/>
			<line fill="none" stroke="#7E1416" stroke-width="0.0268" x1="17.035" y1="-1.133" x2="17.135" y2="-1.126"/>
			<line fill="none" stroke="#7E1416" stroke-width="0.0266" x1="17.135" y1="-1.126" x2="17.235" y2="-1.119"/>
			<line fill="none" stroke="#7E1416" stroke-width="0.0265" x1="17.235" y1="-1.119" x2="17.335" y2="-1.113"/>
			<line fill="none" stroke="#7E1416" stroke-width="0.0264" x1="17.335" y1="-1.113" x2="17.435" y2="-1.107"/>
			<line fill="none" stroke="#7E1416" stroke-width="0.0263" x1="17.435" y1="-1.107" x2="17.535" y2="-1.102"/>
			<line fill="none" stroke="#7E1416" stroke-width="0.0262" x1="17.535" y1="-1.102" x2="17.635" y2="-1.097"/>
		</g>
	</g>
</g>
<g transform="translate(0.000000 60.000000) scale(20.000000 -20.000000) translate(3.000000 0.500000)">
	<line fill="none" stroke="#C1C0C0" stroke-width="0.01" x1="18.411" y1="-2.55" x2="18.411" y2="0.45"/>
	<line fill="none" stroke="#C1C0C0" stroke-width="0.01" x1="18.911" y1="-2.55" x2="18.911" y2="0.45"/>
	<line fill="none" stroke="#C1C0C0" stroke-width="0.01" x1="19.411" y1="-2.55" x2="19.411" y2="0.45"/>
	<line fill="none" stroke="#C1C0C0" stroke-width="0.01" x1="19.911" y1="-2.55" x2="19.911" y2="0.45"/>
	<line fill="none" stroke="#C1C0C0" stroke-width="0.01" x1="20.411" y1="-2.55" x2="20.411" y2="0.45"/>
	<line fill="none" stroke="#C1C0C0" stroke-width="0.01" x1="20.911" y1="-2.55" x2="20.911" y2="0.45"/>
	<line fill="none" stroke="#010101" stroke-width="0.01" x1="21.411" y1="-2.55" x2="21.411" y2="0.45"/>
	<line fill="none" stroke="#C1C0C0" stroke-width="0.01" x1="21.911" y1="-2.55" x2="21.911" y2="0.45"/>
	<line fill="none" stroke="#C1C0C0" stroke-width="0.01" x1="22.411" y1="-2.55" x2="22.411" y2="0.45"/>
	<line fill="none" stroke="#C1C0C0" stroke-width="0.01" x1="22.911" y1="-2.55" x2="22.911" y2="0.45"/>
	<line fill="none" stroke="#C1C0C0" stroke-width="0.01" x1="23.411" y1="-2.55" x2="23.411" y2="0.45"/>
	<line fill="none" stroke="#C1C0C0" stroke-width="0.01" x1="23.911" y1="-2.55" x2="23.911" y2="0.45"/>
	<line fill="none" stroke="#C1C0C0" stroke-width="0.01" x1="24.411" y1="-2.55" x2="24.411" y2="0.45"/>
	<line fill="none" stroke="#C1C0C0" stroke-width="0.01" x1="18.411" y1="-2.55" x2="24.411" y2="-2.55"/>
	<line fill="none" stroke="#010101" stroke-width="0.01" x1="18.411" y1="-2.05" x2="24.411" y2="-2.05"/>
	<line fill="none" stroke="#C1C0C0" stroke-width="0.01" x1="18.411" y1="-1.55" x2="24.411" y2="-1.55"/>
	<line fill="none" stroke="#C1C0C0" stroke-width="0.01" x1="18.411" y1="-1.05" x2="24.411" y2="-1.05"/>
	<line fill="none" stroke="#C1C0C0" stroke-width="0.01" x1="18.411" y1="-0.55" x2="24.411" y2="-0.55"/>
	<line fill="none" stroke="#C1C0C0" stroke-width="0.01" x1="18.411" y1="-0.05" x2="24.411" y2="-0.05"/>
	<line fill="none" stroke="#C1C0C0" stroke-width="0.01" x1="18.411" y1="0.45" x2="24.411" y2="0.45"/>
	<g>
		<defs>
			<rect id="SVGID_7_" x="-38.589" y="-31.05" width="120" height="60"/>
		</defs>
		<clipPath id="SVGID_8_">
			<use xlink:href="#SVGID_7_"  overflow="visible"/>
		</clipPath>
		<g clip-path="url(#SVGID_8_)">
			<line fill="none" stroke="#7E1416" stroke-width="0.025" x1="18.411" y1="-2.05" x2="18.511" y2="-2.05"/>
			<line fill="none" stroke="#7E1416" stroke-width="0.025" x1="18.511" y1="-2.05" x2="18.611" y2="-2.05"/>
			<line fill="none" stroke="#7E1416" stroke-width="0.025" x1="18.611" y1="-2.05" x2="18.711" y2="-2.05"/>
			<line fill="none" stroke="#7E1416" stroke-width="0.025" x1="18.711" y1="-2.05" x2="18.811" y2="-2.05"/>
			<line fill="none" stroke="#7E1416" stroke-width="0.025" x1="18.811" y1="-2.05" x2="18.911" y2="-2.05"/>
			<line fill="none" stroke="#7E1416" stroke-width="0.025" x1="18.911" y1="-2.05" x2="19.011" y2="-2.05"/>
			<line fill="none" stroke="#7E1416" stroke-width="0.025" x1="19.011" y1="-2.05" x2="19.111" y2="-2.05"/>
			<line fill="none" stroke="#7E1416" stroke-width="0.025" x1="19.111" y1="-2.05" x2="19.211" y2="-2.05"/>
			<line fill="none" stroke="#7E1416" stroke-width="0.025" x1="19.211" y1="-2.05" x2="19.311" y2="-2.05"/>
			<line fill="none" stroke="#7E1416" stroke-width="0.025" x1="19.311" y1="-2.05" x2="19.411" y2="-2.05"/>
			<line fill="none" stroke="#7E1416" stroke-width="0.025" x1="19.411" y1="-2.05" x2="19.511" y2="-2.05"/>
			<line fill="none" stroke="#7E1416" stroke-width="0.025" x1="19.511" y1="-2.05" x2="19.611" y2="-2.05"/>
			<line fill="none" stroke="#7E1416" stroke-width="0.025" x1="19.611" y1="-2.05" x2="19.711" y2="-2.05"/>
			<line fill="none" stroke="#7E1416" stroke-width="0.025" x1="19.711" y1="-2.05" x2="19.811" y2="-2.05"/>
			<line fill="none" stroke="#7E1416" stroke-width="0.025" x1="19.811" y1="-2.05" x2="19.911" y2="-2.05"/>
			<line fill="none" stroke="#7E1416" stroke-width="0.025" x1="19.911" y1="-2.05" x2="20.011" y2="-2.05"/>
			<line fill="none" stroke="#7E1416" stroke-width="0.025" x1="20.011" y1="-2.05" x2="20.111" y2="-2.05"/>
			<line fill="none" stroke="#7E1416" stroke-width="0.025" x1="20.111" y1="-2.05" x2="20.211" y2="-2.05"/>
			<line fill="none" stroke="#7E1416" stroke-width="0.025" x1="20.211" y1="-2.05" x2="20.311" y2="-2.05"/>
			<line fill="none" stroke="#7E1416" stroke-width="0.025" x1="20.311" y1="-2.05" x2="20.411" y2="-2.05"/>
			<line fill="none" stroke="#7E1416" stroke-width="0.025" x1="20.411" y1="-2.05" x2="20.511" y2="-2.05"/>
			<line fill="none" stroke="#7E1416" stroke-width="0.025" x1="20.511" y1="-2.05" x2="20.611" y2="-2.05"/>
			<line fill="none" stroke="#7E1416" stroke-width="0.025" x1="20.611" y1="-2.05" x2="20.711" y2="-2.05"/>
			<line fill="none" stroke="#7E1416" stroke-width="0.025" x1="20.711" y1="-2.05" x2="20.811" y2="-2.05"/>
			<line fill="none" stroke="#7E1416" stroke-width="0.025" x1="20.811" y1="-2.05" x2="20.911" y2="-2.05"/>
			<line fill="none" stroke="#7E1416" stroke-width="0.025" x1="20.911" y1="-2.05" x2="21.011" y2="-2.05"/>
			<line fill="none" stroke="#7E1416" stroke-width="0.025" x1="21.011" y1="-2.05" x2="21.111" y2="-2.05"/>
			<line fill="none" stroke="#7E1416" stroke-width="0.025" x1="21.111" y1="-2.05" x2="21.211" y2="-2.05"/>
			<line fill="none" stroke="#7E1416" stroke-width="0.025" x1="21.211" y1="-2.05" x2="21.311" y2="-2.05"/>
			<line fill="none" stroke="#7E1416" stroke-width="0.025" x1="21.311" y1="-2.05" x2="21.411" y2="-2.05"/>
			<line fill="none" stroke="#7E1416" stroke-width="0.0354" x1="21.411" y1="-2.05" x2="21.511" y2="-1.95"/>
			<line fill="none" stroke="#7E1416" stroke-width="0.0354" x1="21.511" y1="-1.95" x2="21.611" y2="-1.85"/>
			<line fill="none" stroke="#7E1416" stroke-width="0.0354" x1="21.611" y1="-1.85" x2="21.711" y2="-1.75"/>
			<line fill="none" stroke="#7E1416" stroke-width="0.0354" x1="21.711" y1="-1.75" x2="21.811" y2="-1.65"/>
			<line fill="none" stroke="#7E1416" stroke-width="0.0354" x1="21.811" y1="-1.65" x2="21.911" y2="-1.55"/>
			<line fill="none" stroke="#7E1416" stroke-width="0.0354" x1="21.911" y1="-1.55" x2="22.011" y2="-1.45"/>
			<line fill="none" stroke="#7E1416" stroke-width="0.0354" x1="22.011" y1="-1.45" x2="22.111" y2="-1.35"/>
			<line fill="none" stroke="#7E1416" stroke-width="0.0354" x1="22.111" y1="-1.35" x2="22.211" y2="-1.25"/>
			<line fill="none" stroke="#7E1416" stroke-width="0.0354" x1="22.211" y1="-1.25" x2="22.311" y2="-1.15"/>
			<line fill="none" stroke="#7E1416" stroke-width="0.0354" x1="22.311" y1="-1.15" x2="22.411" y2="-1.05"/>
			<line fill="none" stroke="#7E1416" stroke-width="0.0354" x1="22.411" y1="-1.05" x2="22.511" y2="-0.95"/>
			<line fill="none" stroke="#7E1416" stroke-width="0.0354" x1="22.511" y1="-0.95" x2="22.611" y2="-0.85"/>
			<line fill="none" stroke="#7E1416" stroke-width="0.0354" x1="22.611" y1="-0.85" x2="22.711" y2="-0.75"/>
			<line fill="none" stroke="#7E1416" stroke-width="0.0354" x1="22.711" y1="-0.75" x2="22.811" y2="-0.65"/>
			<line fill="none" stroke="#7E1416" stroke-width="0.0354" x1="22.811" y1="-0.65" x2="22.911" y2="-0.55"/>
			<line fill="none" stroke="#7E1416" stroke-width="0.0354" x1="22.911" y1="-0.55" x2="23.011" y2="-0.45"/>
			<line fill="none" stroke="#7E1416" stroke-width="0.0354" x1="23.011" y1="-0.45" x2="23.111" y2="-0.35"/>
			<line fill="none" stroke="#7E1416" stroke-width="0.0354" x1="23.111" y1="-0.35" x2="23.211" y2="-0.25"/>
			<line fill="none" stroke="#7E1416" stroke-width="0.0354" x1="23.211" y1="-0.25" x2="23.311" y2="-0.15"/>
			<line fill="none" stroke="#7E1416" stroke-width="0.0354" x1="23.311" y1="-0.15" x2="23.411" y2="-0.05"/>
			<line fill="none" stroke="#7E1416" stroke-width="0.0354" x1="23.411" y1="-0.05" x2="23.511" y2="0.05"/>
			<line fill="none" stroke="#7E1416" stroke-width="0.0354" x1="23.511" y1="0.05" x2="23.611" y2="0.15"/>
			<line fill="none" stroke="#7E1416" stroke-width="0.0354" x1="23.611" y1="0.15" x2="23.711" y2="0.25"/>
			<line fill="none" stroke="#7E1416" stroke-width="0.0354" x1="23.711" y1="0.25" x2="23.811" y2="0.35"/>
			<line fill="none" stroke="#7E1416" stroke-width="0.0354" x1="23.811" y1="0.35" x2="23.911" y2="0.45"/>
			<line fill="none" stroke="#7E1416" stroke-width="0.0354" x1="23.911" y1="0.45" x2="24.011" y2="0.55"/>
			<line fill="none" stroke="#7E1416" stroke-width="0.0354" x1="24.011" y1="0.55" x2="24.111" y2="0.65"/>
			<line fill="none" stroke="#7E1416" stroke-width="0.0354" x1="24.111" y1="0.65" x2="24.211" y2="0.75"/>
			<line fill="none" stroke="#7E1416" stroke-width="0.0354" x1="24.211" y1="0.75" x2="24.311" y2="0.85"/>
			<line fill="none" stroke="#7E1416" stroke-width="0.0354" x1="24.311" y1="0.85" x2="24.411" y2="0.95"/>
		</g>
	</g>
</g>
<g transform="translate(0.000000 60.000000) scale(20.000000 -20.000000) translate(3.000000 1.500000)">
	<line fill="none" stroke="#C1C0C0" stroke-width="0.01" x1="25.191" y1="-3.55" x2="25.191" y2="-0.55"/>
	<line fill="none" stroke="#C1C0C0" stroke-width="0.01" x1="25.691" y1="-3.55" x2="25.691" y2="-0.55"/>
	<line fill="none" stroke="#C1C0C0" stroke-width="0.01" x1="26.191" y1="-3.55" x2="26.191" y2="-0.55"/>
	<line fill="none" stroke="#C1C0C0" stroke-width="0.01" x1="26.691" y1="-3.55" x2="26.691" y2="-0.55"/>
	<line fill="none" stroke="#C1C0C0" stroke-width="0.01" x1="27.191" y1="-3.55" x2="27.191" y2="-0.55"/>
	<line fill="none" stroke="#C1C0C0" stroke-width="0.01" x1="27.691" y1="-3.55" x2="27.691" y2="-0.55"/>
	<line fill="none" stroke="#010101" stroke-width="0.01" x1="28.191" y1="-3.55" x2="28.191" y2="-0.55"/>
	<line fill="none" stroke="#C1C0C0" stroke-width="0.01" x1="28.691" y1="-3.55" x2="28.691" y2="-0.55"/>
	<line fill="none" stroke="#C1C0C0" stroke-width="0.01" x1="29.191" y1="-3.55" x2="29.191" y2="-0.55"/>
	<line fill="none" stroke="#C1C0C0" stroke-width="0.01" x1="29.691" y1="-3.55" x2="29.691" y2="-0.55"/>
	<line fill="none" stroke="#C1C0C0" stroke-width="0.01" x1="30.191" y1="-3.55" x2="30.191" y2="-0.55"/>
	<line fill="none" stroke="#C1C0C0" stroke-width="0.01" x1="30.691" y1="-3.55" x2="30.691" y2="-0.55"/>
	<line fill="none" stroke="#C1C0C0" stroke-width="0.01" x1="31.191" y1="-3.55" x2="31.191" y2="-0.55"/>
	<line fill="none" stroke="#C1C0C0" stroke-width="0.01" x1="25.191" y1="-3.55" x2="31.191" y2="-3.55"/>
	<line fill="none" stroke="#C1C0C0" stroke-width="0.01" x1="25.191" y1="-3.05" x2="31.191" y2="-3.05"/>
	<line fill="none" stroke="#C1C0C0" stroke-width="0.01" x1="25.191" y1="-2.55" x2="31.191" y2="-2.55"/>
	<line fill="none" stroke="#010101" stroke-width="0.01" x1="25.191" y1="-2.05" x2="31.191" y2="-2.05"/>
	<line fill="none" stroke="#C1C0C0" stroke-width="0.01" x1="25.191" y1="-1.55" x2="31.191" y2="-1.55"/>
	<line fill="none" stroke="#C1C0C0" stroke-width="0.01" x1="25.191" y1="-1.05" x2="31.191" y2="-1.05"/>
	<line fill="none" stroke="#C1C0C0" stroke-width="0.01" x1="25.191" y1="-0.55" x2="31.191" y2="-0.55"/>
	<g>
		<defs>
			<rect id="SVGID_9_" x="-31.809" y="-32.05" width="120" height="60"/>
		</defs>
		<clipPath id="SVGID_10_">
			<use xlink:href="#SVGID_9_"  overflow="visible"/>
		</clipPath>
		<g clip-path="url(#SVGID_10_)">
			<line fill="none" stroke="#7E1416" stroke-width="0.0253" x1="25.191" y1="-3.045" x2="25.291" y2="-3.044"/>
			<line fill="none" stroke="#7E1416" stroke-width="0.0253" x1="25.291" y1="-3.044" x2="25.391" y2="-3.043"/>
			<line fill="none" stroke="#7E1416" stroke-width="0.0254" x1="25.391" y1="-3.043" x2="25.491" y2="-3.041"/>
			<line fill="none" stroke="#7E1416" stroke-width="0.0255" x1="25.491" y1="-3.041" x2="25.591" y2="-3.039"/>
			<line fill="none" stroke="#7E1416" stroke-width="0.0256" x1="25.591" y1="-3.039" x2="25.691" y2="-3.037"/>
			<line fill="none" stroke="#7E1416" stroke-width="0.0257" x1="25.691" y1="-3.037" x2="25.791" y2="-3.034"/>
			<line fill="none" stroke="#7E1416" stroke-width="0.0259" x1="25.791" y1="-3.034" x2="25.891" y2="-3.03"/>
			<line fill="none" stroke="#7E1416" stroke-width="0.0261" x1="25.891" y1="-3.03" x2="25.991" y2="-3.026"/>
			<line fill="none" stroke="#7E1416" stroke-width="0.0263" x1="25.991" y1="-3.026" x2="26.091" y2="-3.02"/>
			<line fill="none" stroke="#7E1416" stroke-width="0.0266" x1="26.091" y1="-3.02" x2="26.191" y2="-3.014"/>
			<line fill="none" stroke="#7E1416" stroke-width="0.0269" x1="26.191" y1="-3.014" x2="26.291" y2="-3.006"/>
			<line fill="none" stroke="#7E1416" stroke-width="0.0272" x1="26.291" y1="-3.006" x2="26.391" y2="-2.997"/>
			<line fill="none" stroke="#7E1416" stroke-width="0.0277" x1="26.391" y1="-2.997" x2="26.491" y2="-2.985"/>
			<line fill="none" stroke="#7E1416" stroke-width="0.0282" x1="26.491" y1="-2.985" x2="26.591" y2="-2.972"/>
			<line fill="none" stroke="#7E1416" stroke-width="0.0287" x1="26.591" y1="-2.972" x2="26.691" y2="-2.955"/>
			<line fill="none" stroke="#7E1416" stroke-width="0.0294" x1="26.691" y1="-2.955" x2="26.791" y2="-2.935"/>
			<line fill="none" stroke="#7E1416" stroke-width="0.0301" x1="26.791" y1="-2.935" x2="26.891" y2="-2.912"/>
			<line fill="none" stroke="#7E1416" stroke-width="0.0308" x1="26.891" y1="-2.912" x2="26.991" y2="-2.884"/>
			<line fill="none" stroke="#7E1416" stroke-width="0.0316" x1="26.991" y1="-2.884" x2="27.091" y2="-2.85"/>
			<line fill="none" stroke="#7E1416" stroke-width="0.0324" x1="27.091" y1="-2.85" x2="27.191" y2="-2.812"/>
			<line fill="none" stroke="#7E1416" stroke-width="0.0331" x1="27.191" y1="-2.812" x2="27.291" y2="-2.766"/>
			<line fill="none" stroke="#7E1416" stroke-width="0.0337" x1="27.291" y1="-2.766" x2="27.391" y2="-2.714"/>
			<line fill="none" stroke="#7E1416" stroke-width="0.0343" x1="27.391" y1="-2.714" x2="27.491" y2="-2.654"/>
			<line fill="none" stroke="#7E1416" stroke-width="0.0347" x1="27.491" y1="-2.654" x2="27.591" y2="-2.587"/>
			<line fill="none" stroke="#7E1416" stroke-width="0.035" x1="27.591" y1="-2.587" x2="27.691" y2="-2.512"/>
			<line fill="none" stroke="#7E1416" stroke-width="0.0352" x1="27.691" y1="-2.512" x2="27.791" y2="-2.43"/>
			<line fill="none" stroke="#7E1416" stroke-width="0.0353" x1="27.791" y1="-2.43" x2="27.891" y2="-2.341"/>
			<line fill="none" stroke="#7E1416" stroke-width="0.0353" x1="27.891" y1="-2.341" x2="27.991" y2="-2.247"/>
			<line fill="none" stroke="#7E1416" stroke-width="0.0354" x1="27.991" y1="-2.247" x2="28.091" y2="-2.15"/>
			<line fill="none" stroke="#7E1416" stroke-width="0.0354" x1="28.091" y1="-2.15" x2="28.191" y2="-2.05"/>
			<line fill="none" stroke="#7E1416" stroke-width="0.0354" x1="28.191" y1="-2.05" x2="28.291" y2="-1.95"/>
			<line fill="none" stroke="#7E1416" stroke-width="0.0354" x1="28.291" y1="-1.95" x2="28.391" y2="-1.853"/>
			<line fill="none" stroke="#7E1416" stroke-width="0.0353" x1="28.391" y1="-1.853" x2="28.491" y2="-1.759"/>
			<line fill="none" stroke="#7E1416" stroke-width="0.0353" x1="28.491" y1="-1.759" x2="28.591" y2="-1.67"/>
			<line fill="none" stroke="#7E1416" stroke-width="0.0352" x1="28.591" y1="-1.67" x2="28.691" y2="-1.588"/>
			<line fill="none" stroke="#7E1416" stroke-width="0.035" x1="28.691" y1="-1.588" x2="28.791" y2="-1.513"/>
			<line fill="none" stroke="#7E1416" stroke-width="0.0347" x1="28.791" y1="-1.513" x2="28.891" y2="-1.446"/>
			<line fill="none" stroke="#7E1416" stroke-width="0.0343" x1="28.891" y1="-1.446" x2="28.991" y2="-1.386"/>
			<line fill="none" stroke="#7E1416" stroke-width="0.0337" x1="28.991" y1="-1.386" x2="29.091" y2="-1.334"/>
			<line fill="none" stroke="#7E1416" stroke-width="0.0331" x1="29.091" y1="-1.334" x2="29.191" y2="-1.288"/>
			<line fill="none" stroke="#7E1416" stroke-width="0.0324" x1="29.191" y1="-1.288" x2="29.291" y2="-1.25"/>
			<line fill="none" stroke="#7E1416" stroke-width="0.0316" x1="29.291" y1="-1.25" x2="29.391" y2="-1.216"/>
			<line fill="none" stroke="#7E1416" stroke-width="0.0308" x1="29.391" y1="-1.216" x2="29.491" y2="-1.188"/>
			<line fill="none" stroke="#7E1416" stroke-width="0.0301" x1="29.491" y1="-1.188" x2="29.591" y2="-1.165"/>
			<line fill="none" stroke="#7E1416" stroke-width="0.0294" x1="29.591" y1="-1.165" x2="29.691" y2="-1.145"/>
			<line fill="none" stroke="#7E1416" stroke-width="0.0287" x1="29.691" y1="-1.145" x2="29.791" y2="-1.128"/>
			<line fill="none" stroke="#7E1416" stroke-width="0.0282" x1="29.791" y1="-1.128" x2="29.891" y2="-1.115"/>
			<line fill="none" stroke="#7E1416" stroke-width="0.0277" x1="29.891" y1="-1.115" x2="29.991" y2="-1.103"/>
			<line fill="none" stroke="#7E1416" stroke-width="0.0272" x1="29.991" y1="-1.103" x2="30.091" y2="-1.094"/>
			<line fill="none" stroke="#7E1416" stroke-width="0.0269" x1="30.091" y1="-1.094" x2="30.191" y2="-1.086"/>
			<line fill="none" stroke="#7E1416" stroke-width="0.0266" x1="30.191" y1="-1.086" x2="30.291" y2="-1.08"/>
			<line fill="none" stroke="#7E1416" stroke-width="0.0263" x1="30.291" y1="-1.08" x2="30.391" y2="-1.074"/>
			<line fill="none" stroke="#7E1416" stroke-width="0.0261" x1="30.391" y1="-1.074" x2="30.491" y2="-1.07"/>
			<line fill="none" stroke="#7E1416" stroke-width="0.0259" x1="30.491" y1="-1.07" x2="30.591" y2="-1.066"/>
			<line fill="none" stroke="#7E1416" stroke-width="0.0257" x1="30.591" y1="-1.066" x2="30.691" y2="-1.063"/>
			<line fill="none" stroke="#7E1416" stroke-width="0.0256" x1="30.691" y1="-1.063" x2="30.791" y2="-1.061"/>
			<line fill="none" stroke="#7E1416" stroke-width="0.0255" x1="30.791" y1="-1.061" x2="30.891" y2="-1.059"/>
			<line fill="none" stroke="#7E1416" stroke-width="0.0254" x1="30.891" y1="-1.059" x2="30.991" y2="-1.057"/>
			<line fill="none" stroke="#7E1416" stroke-width="0.0253" x1="30.991" y1="-1.057" x2="31.091" y2="-1.056"/>
			<line fill="none" stroke="#7E1416" stroke-width="0.0253" x1="31.091" y1="-1.056" x2="31.191" y2="-1.055"/>
		</g>
	</g>
</g>
</svg>
