<?xml version="1.0" encoding="UTF-8" standalone="no"?>
<!-- Generator: Adobe Illustrator 16.0.0, SVG Export Plug-In . SVG Version: 6.00 Build 0)  -->

<svg
   xmlns:dc="http://purl.org/dc/elements/1.1/"
   xmlns:cc="http://creativecommons.org/ns#"
   xmlns:rdf="http://www.w3.org/1999/02/22-rdf-syntax-ns#"
   xmlns:svg="http://www.w3.org/2000/svg"
   xmlns="http://www.w3.org/2000/svg"
   xmlns:xlink="http://www.w3.org/1999/xlink"
   xmlns:sodipodi="http://sodipodi.sourceforge.net/DTD/sodipodi-0.dtd"
   xmlns:inkscape="http://www.inkscape.org/namespaces/inkscape"
   version="1.1"
   id="_x30_"
   x="0px"
   y="0px"
   width="1851.5222"
   height="988.61096"
   viewBox="0 0 1851.5222 988.61095"
   enable-background="new 0 0 1700.79 841.89"
   xml:space="preserve"
   sodipodi:docname="human-embeddings.svg"
   inkscape:version="0.92.0 r"><metadata
     id="metadata72"><rdf:RDF><cc:Work
         rdf:about=""><dc:format>image/svg+xml</dc:format><dc:type
           rdf:resource="http://purl.org/dc/dcmitype/StillImage" /></cc:Work></rdf:RDF></metadata><defs
     id="defs70"><linearGradient
       inkscape:collect="always"
       id="linearGradient4556"><stop
         style="stop-color:#ff7f00;stop-opacity:1;"
         offset="0"
         id="stop4552" /><stop
         style="stop-color:#ff7f00;stop-opacity:0;"
         offset="1"
         id="stop4554" /></linearGradient><radialGradient
       inkscape:collect="always"
       xlink:href="#linearGradient4556"
       id="radialGradient4558"
       cx="564.16168"
       cy="659.07904"
       fx="564.16168"
       fy="659.07904"
       r="20.844404"
       gradientTransform="matrix(2.2833529,0,0,2.283602,-734.21033,-955.38128)"
       gradientUnits="userSpaceOnUse" /></defs><sodipodi:namedview
     pagecolor="#ffffff"
     bordercolor="#666666"
     borderopacity="1"
     objecttolerance="10"
     gridtolerance="10"
     guidetolerance="10"
     inkscape:pageopacity="0"
     inkscape:pageshadow="2"
     inkscape:window-width="1920"
     inkscape:window-height="1016"
     id="namedview68"
     showgrid="false"
     inkscape:zoom="0.29435239"
     inkscape:cx="1675.3773"
     inkscape:cy="-39.564767"
     inkscape:window-x="0"
     inkscape:window-y="27"
     inkscape:window-maximized="1"
     inkscape:current-layer="_x30_" /><path
     style="clip-rule:evenodd;opacity:1;fill:url(#radialGradient4558);fill-opacity:1;fill-rule:evenodd;stroke-width:5.19172478"
     inkscape:connector-curvature="0"
     id="path61"
     d="m 601.56494,549.69034 c 0,-26.28571 -21.30683,-47.59773 -47.59773,-47.59773 -26.28571,0 -47.59254,21.31202 -47.59254,47.59773 0,26.2857 21.30683,47.60293 47.59254,47.60293 26.28572,0 47.59773,-21.31723 47.59773,-47.60293 z" /><g
     id="CIRCLE_5_"
     transform="translate(-96.672723,148.95242)"><g
       id="g4549"><path
         d="m 887.81,349.223 c 0,-102.532 -83.119,-185.65 -185.65,-185.65 -102.531,0 -185.65,83.118 -185.65,185.65 0,102.533 83.118,185.65 185.65,185.65 102.532,0 185.65,-83.118 185.65,-185.65 z"
         id="path2"
         inkscape:connector-curvature="0"
         style="opacity:0.25;fill:#ff7f00" /><circle
         cx="702.159"
         cy="349.22299"
         r="185.64999"
         id="circle4"
         style="fill:none;stroke:#ff7f00;stroke-width:4;stroke-linecap:round;stroke-linejoin:round;stroke-dasharray:20.1124, 20.1124" /></g></g><g
     id="LWPOLYLINE"
     transform="translate(-96.672723,148.95242)"><line
       stroke-miterlimit="10"
       x1="300.211"
       y1="50.306999"
       x2="300.211"
       y2="806.65997"
       id="line9"
       style="fill:none;stroke:#000000;stroke-width:1.13390005;stroke-linecap:round;stroke-linejoin:round;stroke-miterlimit:10" /></g><g
     id="LWPOLYLINE_1_"
     transform="translate(-96.672723,148.95242)"><line
       stroke-miterlimit="10"
       x1="300.211"
       y1="50.306999"
       x2="300.211"
       y2="806.65997"
       id="line12"
       style="fill:none;stroke:#000000;stroke-width:4;stroke-linecap:round;stroke-linejoin:round;stroke-miterlimit:10" /></g><g
     id="LWPOLYLINE_2_"
     transform="translate(-96.672723,148.95242)"><line
       stroke-miterlimit="10"
       x1="1001.075"
       y1="751.17102"
       x2="244.72301"
       y2="751.17102"
       id="line15"
       style="fill:none;stroke:#000000;stroke-width:1.13390005;stroke-linecap:round;stroke-linejoin:round;stroke-miterlimit:10" /></g><g
     id="LWPOLYLINE_3_"
     transform="translate(-96.672723,148.95242)"><line
       stroke-miterlimit="10"
       x1="1001.075"
       y1="751.17102"
       x2="244.72301"
       y2="751.17102"
       id="line18"
       style="fill:none;stroke:#000000;stroke-width:4;stroke-linecap:round;stroke-linejoin:round;stroke-miterlimit:10" /></g><g
     id="MTEXT"
     transform="translate(-96.672723,148.95242)"><text
       transform="translate(359.21,801.4839)"
       font-size="40.4466"
       id="text21"
       style="font-size:40.44660187px;font-family:DejaVuSans">FEMALE</text>
</g><g
     id="INSERT"
     transform="translate(-96.672723,148.95242)"><g
       id="HATCH"><path
         d="m 448.322,751.171 c 0,-5.063 -4.105,-9.169 -9.168,-9.169 -5.063,0 -9.168,4.105 -9.168,9.169 0,5.064 4.104,9.169 9.168,9.169 5.062,0 9.168,-4.105 9.168,-9.169 z"
         id="path24"
         inkscape:connector-curvature="0"
         style="clip-rule:evenodd;fill-rule:evenodd" /></g><g
       id="CIRCLE"><path
         stroke-miterlimit="10"
         d="m 448.322,751.171 c 0,-5.063 -4.104,-9.169 -9.168,-9.169 -5.064,0 -9.168,4.105 -9.168,9.169 0,5.064 4.104,9.169 9.168,9.169 5.064,0 9.168,-4.105 9.168,-9.169 z"
         id="path27"
         inkscape:connector-curvature="0"
         style="fill:none;stroke:#000000;stroke-width:0.7087;stroke-linecap:round;stroke-linejoin:round;stroke-miterlimit:10" /></g></g><g
     id="INSERT_1_"
     transform="translate(-96.672723,148.95242)"><g
       id="HATCH_1_"><path
         d="m 309.379,612.228 c 0,-5.062 -4.105,-9.168 -9.167,-9.168 -5.063,0 -9.168,4.106 -9.168,9.168 0,5.063 4.105,9.168 9.168,9.168 5.061,0 9.167,-4.105 9.167,-9.168 z"
         id="path31"
         inkscape:connector-curvature="0"
         style="clip-rule:evenodd;fill-rule:evenodd" /></g><g
       id="CIRCLE_1_"><path
         stroke-miterlimit="10"
         d="m 309.379,612.228 c 0,-5.063 -4.104,-9.168 -9.167,-9.168 -5.064,0 -9.168,4.104 -9.168,9.168 0,5.063 4.104,9.168 9.168,9.168 5.062,0 9.167,-4.105 9.167,-9.168 z"
         id="path34"
         inkscape:connector-curvature="0"
         style="fill:none;stroke:#000000;stroke-width:0.7087;stroke-linecap:round;stroke-linejoin:round;stroke-miterlimit:10" /></g></g><g
     id="MTEXT_1_"
     transform="translate(-96.672723,148.95242)"><text
       transform="translate(183.1299,655.4673)"
       font-size="40.4466"
       id="text38"
       style="font-size:40.44660187px;font-family:DejaVuSans">MALE</text>
</g><g
     id="MTEXT_2_"
     transform="translate(-96.672723,148.95242)"><text
       transform="translate(690.6943,451.5737)"
       font-size="40.4466"
       id="text41"
       style="font-size:40.44660187px;font-family:DejaVuSans">WOMAN</text>
</g><g
     id="INSERT_2_"
     transform="translate(-96.672723,148.95242)"><g
       id="HATCH_2_"><path
         d="m 798.754,400.74 c 0,-5.063 -4.105,-9.168 -9.169,-9.168 -5.063,0 -9.167,4.105 -9.167,9.168 0,5.063 4.105,9.167 9.167,9.167 5.064,0 9.169,-4.105 9.169,-9.167 z"
         id="path44"
         inkscape:connector-curvature="0"
         style="clip-rule:evenodd;fill-rule:evenodd" /></g><g
       id="CIRCLE_2_"><path
         stroke-miterlimit="10"
         d="m 798.754,400.74 c 0,-5.063 -4.105,-9.168 -9.169,-9.168 -5.063,0 -9.167,4.105 -9.167,9.168 0,5.063 4.105,9.167 9.167,9.167 5.064,0 9.169,-4.105 9.169,-9.167 z"
         id="path47"
         inkscape:connector-curvature="0"
         style="fill:none;stroke:#000000;stroke-width:0.7087;stroke-linecap:round;stroke-linejoin:round;stroke-miterlimit:10" /></g></g><g
     id="INSERT_3_"
     transform="translate(-96.672723,148.95242)"><g
       id="HATCH_3_"><path
         d="m 659.811,261.796 c 0,-5.063 -4.104,-9.169 -9.167,-9.169 -5.063,0 -9.169,4.105 -9.169,9.169 0,5.063 4.105,9.167 9.169,9.167 5.062,10e-4 9.167,-4.104 9.167,-9.167 z"
         id="path51"
         inkscape:connector-curvature="0"
         style="clip-rule:evenodd;fill-rule:evenodd" /></g><g
       id="CIRCLE_3_"><path
         stroke-miterlimit="10"
         d="m 659.811,261.796 c 0,-5.063 -4.104,-9.169 -9.167,-9.169 -5.063,0 -9.169,4.105 -9.169,9.169 0,5.064 4.105,9.167 9.169,9.167 5.062,10e-4 9.167,-4.103 9.167,-9.167 z"
         id="path54"
         inkscape:connector-curvature="0"
         style="fill:none;stroke:#000000;stroke-width:0.7087;stroke-linecap:round;stroke-linejoin:round;stroke-miterlimit:10" /></g></g><g
     id="MTEXT_3_"
     transform="translate(-96.672723,148.95242)"><text
       transform="translate(533.5625,305.0356)"
       font-size="40.4466"
       id="text58"
       style="font-size:40.44660187px;font-family:DejaVuSans">MAN</text>
</g><g
     id="MTEXT_3_-3"
     transform="translate(-167.97056,285.65493)"><text
       transform="translate(533.5625,305.0356)"
       font-size="40.4466"
       id="text58-6"
       style="font-size:40.44660187px;font-family:DejaVuSans;fill:#ff7f00">HUMAN</text>
</g></svg>