<?xml version="1.0" encoding="UTF-8" standalone="no"?>
<svg
   xmlns:dc="http://purl.org/dc/elements/1.1/"
   xmlns:cc="http://creativecommons.org/ns#"
   xmlns:rdf="http://www.w3.org/1999/02/22-rdf-syntax-ns#"
   xmlns:svg="http://www.w3.org/2000/svg"
   xmlns="http://www.w3.org/2000/svg"
   xmlns:sodipodi="http://sodipodi.sourceforge.net/DTD/sodipodi-0.dtd"
   xmlns:inkscape="http://www.inkscape.org/namespaces/inkscape"
   viewBox="0 0 283.33331 283.33331"
   height="283.33331"
   width="283.33331"
   xml:space="preserve"
   id="svg2"
   version="1.1"
   sodipodi:docname="openshine-icon.svg"
   inkscape:version="0.92.0 r"><sodipodi:namedview
     pagecolor="#ffffff"
     bordercolor="#666666"
     borderopacity="1"
     objecttolerance="10"
     gridtolerance="10"
     guidetolerance="10"
     inkscape:pageopacity="0"
     inkscape:pageshadow="2"
     inkscape:window-width="640"
     inkscape:window-height="480"
     id="namedview47"
     showgrid="false"
     inkscape:zoom="0.28548387"
     inkscape:cx="514.00579"
     inkscape:cy="127.65551"
     inkscape:window-x="0"
     inkscape:window-y="27"
     inkscape:window-maximized="0"
     inkscape:current-layer="g10" /><metadata
     id="metadata8"><rdf:RDF><cc:Work
         rdf:about=""><dc:format>image/svg+xml</dc:format><dc:type
           rdf:resource="http://purl.org/dc/dcmitype/StillImage" /><dc:title /></cc:Work></rdf:RDF></metadata><defs
     id="defs6"><clipPath
       id="clipPath18"
       clipPathUnits="userSpaceOnUse"><path
         id="path16"
         d="M 0,400 H 930 V 0 H 0 Z"
         inkscape:connector-curvature="0" /></clipPath><clipPath
       id="clipPath38"
       clipPathUnits="userSpaceOnUse"><path
         id="path36"
         d="m 126.2,264.95 c -17.067,-17.333 -25.983,-38.966 -26.75,-64.9 v 0 c 0.433,-15 3.583,-28.567 9.45,-40.7 v 0 l 0.434,-0.434 21.666,15.333 -0.25,0.551 c -3.134,7.634 -4.817,16.05 -5.05,25.25 v 0 c 0.2,7.5 1.349,14.467 3.45,20.9 v 0 c -0.15,4.717 -1.017,8.117 -1.65,13.55 v 0 c -1.166,12.567 2.4,23.066 10,33.334 v 0 c 6.3,7.732 13.067,13.432 22.833,17.499 v 0 c 4.601,1.9 9,3.001 13.867,5.217 v 0 c -18.633,-3.433 -34.633,-11.967 -48,-25.6"
         inkscape:connector-curvature="0" /></clipPath><radialGradient
       id="radialGradient50"
       spreadMethod="pad"
       gradientTransform="matrix(56.601501,0.0473785,0.0665131,-79.447968,153.3999,247.90918)"
       gradientUnits="userSpaceOnUse"
       r="1"
       cy="0"
       cx="0"
       fy="0"
       fx="0"><stop
         id="stop44"
         offset="0"
         style="stop-opacity:1;stop-color:#787878" /><stop
         id="stop46"
         offset="0.745102"
         style="stop-opacity:1;stop-color:#ffffff" /><stop
         id="stop48"
         offset="1"
         style="stop-opacity:1;stop-color:#ffffff" /></radialGradient><clipPath
       id="clipPath60"
       clipPathUnits="userSpaceOnUse"><path
         id="path58"
         d="m 246.083,235.999 0.017,-0.449 c 6.467,-10.1 9.883,-21.933 10.25,-35.5 v 0 c -0.167,-6.633 -1.051,-12.85 -2.65,-18.65 v 0 c -0.2,-3.9 0.633,-4.634 1.3,-6.9 v 0 c 0.833,-4.167 0.934,-8.634 1,-12.5 v 0 c -0.733,-17.534 -7.366,-28.5 -20.833,-38 v 0 C 221.6,114.334 206.833,111.165 189.8,107.75 v 0 h -0.65 c 0.6,-0.033 1.2,-0.05 1.8,-0.05 v 0 c 26.034,0.566 47.667,9.683 64.9,27.349 v 0 c 17.067,17.3 25.967,38.968 26.7,65.001 v 0 c -0.5,17.767 -4.833,33.517 -13,47.25 v 0 l -0.466,0.366 z"
         inkscape:connector-curvature="0" /></clipPath><radialGradient
       id="radialGradient72"
       spreadMethod="pad"
       gradientTransform="matrix(19.362228,72.692032,54.160644,-14.426209,228.9502,153.82031)"
       gradientUnits="userSpaceOnUse"
       r="1"
       cy="0"
       cx="0"
       fy="0"
       fx="0"><stop
         id="stop66"
         offset="0"
         style="stop-opacity:1;stop-color:#787878" /><stop
         id="stop68"
         offset="0.698044"
         style="stop-opacity:1;stop-color:#ffffff" /><stop
         id="stop70"
         offset="1"
         style="stop-opacity:1;stop-color:#ffffff" /></radialGradient><clipPath
       id="clipPath82"
       clipPathUnits="userSpaceOnUse"><path
         id="path80"
         d="M 0,400 H 930 V 0 H 0 Z"
         inkscape:connector-curvature="0" /></clipPath></defs><g
     transform="matrix(1.3333333,0,0,-1.3333333,-112.99986,408.33319)"
     id="g10"><g
       id="g89"><g
         id="g28"
         transform="translate(266.1499,275.1499)"><path
           inkscape:connector-curvature="0"
           d="m 0,0 c 20.733,-20.733 31.1,-45.783 31.1,-75.15 0,-29.333 -10.367,-54.366 -31.1,-75.1 -20.767,-20.766 -45.817,-31.15 -75.15,-31.15 -29.367,0 -54.416,10.384 -75.15,31.15 -20.733,20.734 -31.1,45.767 -31.1,75.1 0,29.367 10.367,54.417 31.1,75.15 20.734,20.733 45.783,31.1 75.15,31.1 C -45.817,31.1 -20.767,20.733 0,0"
           style="fill:#8cd25a;fill-opacity:1;fill-rule:evenodd;stroke:none"
           id="path30" /></g><g
         clip-path="url(#clipPath38)"
         id="g34"><g
           id="g40"><g
             id="g42"><path
               id="path52"
               style="fill:url(#radialGradient50);stroke:none"
               d="m 126.2,264.95 c -17.067,-17.333 -25.983,-38.966 -26.75,-64.9 v 0 c 0.433,-15 3.583,-28.567 9.45,-40.7 v 0 l 0.434,-0.434 21.666,15.333 -0.25,0.551 c -3.134,7.634 -4.817,16.05 -5.05,25.25 v 0 c 0.2,7.5 1.349,14.467 3.45,20.9 v 0 c -0.15,4.717 -1.017,8.117 -1.65,13.55 v 0 c -1.166,12.567 2.4,23.066 10,33.334 v 0 c 6.3,7.732 13.067,13.432 22.833,17.499 v 0 c 4.601,1.9 9,3.001 13.867,5.217 v 0 c -18.633,-3.433 -34.633,-11.967 -48,-25.6"
               inkscape:connector-curvature="0" /></g></g></g><g
         clip-path="url(#clipPath60)"
         id="g56"><g
           id="g62"><g
             id="g64"><path
               id="path74"
               style="fill:url(#radialGradient72);stroke:none"
               d="m 246.083,235.999 0.017,-0.449 c 6.467,-10.1 9.883,-21.933 10.25,-35.5 v 0 c -0.167,-6.633 -1.051,-12.85 -2.65,-18.65 v 0 c -0.2,-3.9 0.633,-4.634 1.3,-6.9 v 0 c 0.833,-4.167 0.934,-8.634 1,-12.5 v 0 c -0.733,-17.534 -7.366,-28.5 -20.833,-38 v 0 C 221.6,114.334 206.833,111.165 189.8,107.75 v 0 h -0.65 c 0.6,-0.033 1.2,-0.05 1.8,-0.05 v 0 c 26.034,0.566 47.667,9.683 64.9,27.349 v 0 c 17.067,17.3 25.967,38.968 26.7,65.001 v 0 c -0.5,17.767 -4.833,33.517 -13,47.25 v 0 l -0.466,0.366 z"
               inkscape:connector-curvature="0" /></g></g></g><g
         id="g88"
         transform="translate(253.7002,181.4014)"><path
           inkscape:connector-curvature="0"
           d="M 0,0 C 0.833,-2.035 1.583,-4.185 2.25,-6.451 3.083,-10.618 3.533,-14.635 3.6,-18.5 2.867,-36.035 -4.233,-49.552 -17.7,-59.052 -31.267,-68.718 -46.667,-73.584 -63.9,-73.651 h -0.65 c -0.367,0 -0.717,0.016 -1.05,0.049 -24.667,1.167 -45.3,10.25 -61.9,27.25 -7.233,7.334 -13,15.435 -17.3,24.3 l 21.85,15.45 c 3.2,-7.898 7.916,-14.966 14.15,-21.2 11.733,-11.865 26.133,-18.349 43.2,-19.448 0.7,-0.035 1.4,-0.068 2.1,-0.102 h 0.75 c 0.333,0 0.667,0.018 1,0.05 h 0.3 c 1.8,0.068 3.567,0.2 5.3,0.401 l 1.35,0.151 c 6.667,1.065 13.017,3.398 19.05,7 4.6,2.766 8.167,6.583 10.7,11.448 2.867,5.568 3.434,11.017 1.7,16.351 -2.233,6.833 -8.4,11.75 -18.5,14.75 -6.267,1.899 -13.533,2.933 -21.8,3.099 -22.167,0.5 -38.967,6.25 -50.4,17.25 -3.567,3.467 -6.384,7.234 -8.45,11.301 l -2.05,5.1 c -1.267,3.599 -2.217,8.117 -2.85,13.55 v -0.25 c -1.167,12.567 2.05,23.983 9.65,34.25 6.3,7.733 14.333,13.633 24.1,17.7 4.6,1.9 9.317,3.349 14.15,4.349 4.767,0.901 9.733,1.451 14.9,1.651 0.6,0.066 1.217,0.099 1.85,0.099 0.466,0 0.933,-0.016 1.4,-0.049 25.4,-0.933 46.567,-10.034 63.5,-27.3 5.367,-5.467 9.933,-11.35 13.7,-17.651 L -7.6,54.148 c -2.467,3.867 -5.367,7.467 -8.7,10.801 -12.833,12.833 -28.316,19.4 -46.45,19.699 -2.667,0.034 -5.9,-0.25 -9.7,-0.849 -3.7,-0.567 -7,-1.3 -9.9,-2.2 -6.1,-1.867 -11.033,-5.05 -14.8,-9.55 -3.534,-4.234 -5,-9.883 -4.4,-16.95 1.1,-9.1 5.7,-15.05 13.8,-17.85 8,-2.833 17.083,-4.55 27.25,-5.15 9.466,-0.6 16.983,-1.634 22.55,-3.1 4.8,-1.3 10.033,-3.484 15.7,-6.55 C -11.417,16.615 -4,9.132 0,0"
           style="fill:#ffffff;fill-opacity:1;fill-rule:evenodd;stroke:none"
           id="path90" /></g></g></g></svg>