<?xml version="1.0" encoding="UTF-8" standalone="no"?>
<svg
   xmlns:dc="http://purl.org/dc/elements/1.1/"
   xmlns:cc="http://creativecommons.org/ns#"
   xmlns:rdf="http://www.w3.org/1999/02/22-rdf-syntax-ns#"
   xmlns:svg="http://www.w3.org/2000/svg"
   xmlns="http://www.w3.org/2000/svg"
   viewBox="0 0 1240 533.33331"
   height="533.33331"
   width="1240"
   xml:space="preserve"
   id="svg2"
   version="1.1"><metadata
     id="metadata8"><rdf:RDF><cc:Work
         rdf:about=""><dc:format>image/svg+xml</dc:format><dc:type
           rdf:resource="http://purl.org/dc/dcmitype/StillImage" /><dc:title></dc:title></cc:Work></rdf:RDF></metadata><defs
     id="defs6"><clipPath
       id="clipPath18"
       clipPathUnits="userSpaceOnUse"><path
         id="path16"
         d="M 0,400 H 930 V 0 H 0 Z" /></clipPath><clipPath
       id="clipPath38"
       clipPathUnits="userSpaceOnUse"><path
         id="path36"
         d="m 126.2,264.95 c -17.067,-17.333 -25.983,-38.966 -26.75,-64.9 v 0 c 0.433,-15 3.583,-28.567 9.45,-40.7 v 0 l 0.434,-0.434 21.666,15.333 -0.25,0.551 c -3.134,7.634 -4.817,16.05 -5.05,25.25 v 0 c 0.2,7.5 1.349,14.467 3.45,20.9 v 0 c -0.15,4.717 -1.017,8.117 -1.65,13.55 v 0 c -1.166,12.567 2.4,23.066 10,33.334 v 0 c 6.3,7.732 13.067,13.432 22.833,17.499 v 0 c 4.601,1.9 9,3.001 13.867,5.217 v 0 c -18.633,-3.433 -34.633,-11.967 -48,-25.6" /></clipPath><radialGradient
       id="radialGradient50"
       spreadMethod="pad"
       gradientTransform="matrix(56.601501,0.0473785,0.0665131,-79.447968,153.3999,247.90918)"
       gradientUnits="userSpaceOnUse"
       r="1"
       cy="0"
       cx="0"
       fy="0"
       fx="0"><stop
         id="stop44"
         offset="0"
         style="stop-opacity:1;stop-color:#787878" /><stop
         id="stop46"
         offset="0.745102"
         style="stop-opacity:1;stop-color:#ffffff" /><stop
         id="stop48"
         offset="1"
         style="stop-opacity:1;stop-color:#ffffff" /></radialGradient><clipPath
       id="clipPath60"
       clipPathUnits="userSpaceOnUse"><path
         id="path58"
         d="m 246.083,235.999 0.017,-0.449 c 6.467,-10.1 9.883,-21.933 10.25,-35.5 v 0 c -0.167,-6.633 -1.051,-12.85 -2.65,-18.65 v 0 c -0.2,-3.9 0.633,-4.634 1.3,-6.9 v 0 c 0.833,-4.167 0.934,-8.634 1,-12.5 v 0 c -0.733,-17.534 -7.366,-28.5 -20.833,-38 v 0 C 221.6,114.334 206.833,111.165 189.8,107.75 v 0 h -0.65 c 0.6,-0.033 1.2,-0.05 1.8,-0.05 v 0 c 26.034,0.566 47.667,9.683 64.9,27.349 v 0 c 17.067,17.3 25.967,38.968 26.7,65.001 v 0 c -0.5,17.767 -4.833,33.517 -13,47.25 v 0 l -0.466,0.366 z" /></clipPath><radialGradient
       id="radialGradient72"
       spreadMethod="pad"
       gradientTransform="matrix(19.362228,72.692032,54.160644,-14.426209,228.9502,153.82031)"
       gradientUnits="userSpaceOnUse"
       r="1"
       cy="0"
       cx="0"
       fy="0"
       fx="0"><stop
         id="stop66"
         offset="0"
         style="stop-opacity:1;stop-color:#787878" /><stop
         id="stop68"
         offset="0.698044"
         style="stop-opacity:1;stop-color:#ffffff" /><stop
         id="stop70"
         offset="1"
         style="stop-opacity:1;stop-color:#ffffff" /></radialGradient><clipPath
       id="clipPath82"
       clipPathUnits="userSpaceOnUse"><path
         id="path80"
         d="M 0,400 H 930 V 0 H 0 Z" /></clipPath></defs><g
     transform="matrix(1.3333333,0,0,-1.3333333,0,533.33333)"
     id="g10"><rect
       style="stroke-width:0.75;fill:#ffffff"
       transform="scale(1,-1)"
       y="-402.56946"
       x="0"
       height="406.875"
       width="936.45831"
       id="rect92" /><g
       id="g12"><g
         clip-path="url(#clipPath18)"
         id="g14"><g
           transform="translate(477.9004,232.1001)"
           id="g20"><path
             id="path22"
             style="fill:#282828;fill-opacity:1;fill-rule:evenodd;stroke:none"
             d="M 0,0 C 8.666,0 15.483,-2.667 20.449,-8 25.483,-13.333 28,-21.184 28,-31.55 c 0,-0.967 -0.051,-2.067 -0.15,-3.3 -0.068,-1.2 -0.134,-2.267 -0.201,-3.2 H -11.4 c 0.366,-3.467 2.016,-6.217 4.95,-8.25 2.933,-2.033 6.866,-3.05 11.8,-3.05 3.133,0 6.216,0.283 9.25,0.85 3.033,0.6 5.516,1.317 7.45,2.15 l 2.3,-14.15 c -0.901,-0.466 -2.117,-0.933 -3.651,-1.4 -1.566,-0.433 -3.283,-0.834 -5.149,-1.2 -1.901,-0.366 -3.934,-0.65 -6.101,-0.85 C 7.316,-64.183 5.166,-64.3 3,-64.3 c -5.468,0 -10.218,0.8 -14.25,2.4 -4.033,1.633 -7.367,3.866 -10,6.7 -2.7,2.833 -4.667,6.166 -5.9,10 -1.267,3.9 -1.9,8.1 -1.9,12.6 0,5.367 0.816,10.1 2.449,14.2 1.667,4.067 3.851,7.433 6.551,10.1 2.699,2.733 5.782,4.8 9.249,6.2 C -7.267,-0.7 -3.667,0 0,0 m -115.101,-2.35 c 3.601,-1.533 6.717,-3.7 9.351,-6.5 2.6,-2.8 4.633,-6.15 6.1,-10.05 1.433,-3.967 2.15,-8.35 2.15,-13.15 0,-4.8 -0.684,-9.2 -2.05,-13.2 -1.4,-3.966 -3.4,-7.367 -6,-10.2 -2.6,-2.8 -5.717,-4.983 -9.35,-6.55 -3.6,-1.534 -7.667,-2.3 -12.201,-2.3 -4.433,0 -8.466,0.766 -12.099,2.3 -3.633,1.567 -6.75,3.75 -9.35,6.55 -2.6,2.833 -4.617,6.234 -6.051,10.2 -1.466,4 -2.199,8.4 -2.199,13.2 0,4.8 0.75,9.183 2.25,13.15 1.467,3.9 3.516,7.25 6.15,10.05 2.666,2.8 5.799,4.967 9.4,6.5 3.667,1.567 7.633,2.35 11.899,2.35 4.367,0 8.367,-0.783 12,-2.35 M -136,-19.55 c -2.101,-3 -3.15,-7.167 -3.15,-12.5 0,-5.333 1.049,-9.533 3.15,-12.6 2.133,-3.134 5.1,-4.7 8.899,-4.7 3.834,0 6.768,1.566 8.801,4.7 2.1,3.067 3.15,7.267 3.15,12.6 0,5.333 -1.05,9.5 -3.15,12.5 -2.033,3.067 -4.967,4.6 -8.801,4.6 -3.799,0 -6.766,-1.533 -8.899,-4.6 M 8.5,-17.9 c -0.867,1.1 -1.983,2.017 -3.351,2.75 -1.299,0.733 -2.95,1.1 -4.95,1.1 -1.932,0 -3.583,-0.35 -4.949,-1.05 -1.4,-0.667 -2.551,-1.567 -3.45,-2.7 -0.901,-1.134 -1.617,-2.45 -2.151,-3.95 -0.466,-1.467 -0.816,-2.983 -1.049,-4.55 h 22.65 c -0.101,1.567 -0.351,3.067 -0.75,4.5 -0.434,1.467 -1.101,2.767 -2,3.9 M 46.85,-1.15 C 51.517,-0.383 56.383,0 61.449,0 c 5.167,0 9.467,-0.684 12.901,-2.05 3.432,-1.367 6.15,-3.3 8.15,-5.8 2,-2.433 3.433,-5.35 4.3,-8.75 0.833,-3.433 1.25,-7.25 1.25,-11.45 V -62.5 h -17.2 v 32.25 c 0,5.566 -0.734,9.517 -2.201,11.85 -1.466,2.3 -4.216,3.45 -8.25,3.45 -1.2,0 -2.5,-0.067 -3.899,-0.2 -1.4,-0.1 -2.65,-0.233 -3.75,-0.4 V -62.5 h -17.2 v 58.95 c 2.933,0.866 6.7,1.667 11.3,2.4" /></g><g
           transform="translate(574.1504,213.4502)"
           id="g24"><path
             id="path26"
             style="fill:#8cd25a;fill-opacity:1;fill-rule:evenodd;stroke:none"
             d="m 0,0 c 0,5.733 2.083,10.283 6.25,13.65 4.233,3.333 10.017,5 17.35,5 3.667,0 7.167,-0.334 10.5,-1 3.366,-0.667 6.049,-1.383 8.049,-2.15 l -3,-13.55 C 37.183,2.617 35.05,3.233 32.75,3.8 c -2.267,0.533 -4.834,0.8 -7.7,0.8 -5.234,0 -7.851,-1.517 -7.851,-4.55 0,-0.667 0.117,-1.267 0.351,-1.8 0.2,-0.567 0.633,-1.1 1.3,-1.6 0.633,-0.467 1.533,-0.983 2.7,-1.55 1.2,-0.567 2.717,-1.2 4.55,-1.9 3.766,-1.333 6.866,-2.667 9.299,-4 2.434,-1.333 4.351,-2.784 5.75,-4.35 1.334,-1.6 2.267,-3.383 2.8,-5.35 0.568,-1.9 0.851,-4.134 0.851,-6.7 0,-6.067 -2.234,-10.667 -6.7,-13.8 -4.467,-3.101 -10.8,-4.65 -19,-4.65 -5.333,0 -9.784,0.466 -13.35,1.4 -3.534,0.899 -6,1.649 -7.4,2.25 l 2.95,14.05 c 2.866,-1.134 5.8,-2.033 8.8,-2.7 3.033,-0.666 6.033,-1 9,-1 3.099,0 5.299,0.316 6.599,0.95 1.267,0.634 1.901,1.833 1.901,3.599 0,1.401 -0.784,2.601 -2.35,3.601 -1.601,1.066 -4.117,2.25 -7.551,3.55 -2.666,1 -5.099,2.033 -7.3,3.099 -2.132,1.068 -3.983,2.368 -5.549,3.901 -1.534,1.5 -2.717,3.3 -3.55,5.4 C 0.433,-5.45 0,-2.934 0,0 m 230.199,18.65 c 8.667,0 15.484,-2.667 20.45,-8 5.034,-5.334 7.55,-13.184 7.55,-23.55 0,-0.967 -0.05,-2.067 -0.149,-3.3 -0.067,-1.2 -0.134,-2.267 -0.2,-3.2 H 218.8 c 0.366,-3.467 2.016,-6.217 4.95,-8.25 2.933,-2.034 6.866,-3.05 11.8,-3.05 3.133,0 6.217,0.283 9.25,0.849 3.033,0.601 5.516,1.318 7.45,2.151 l 2.3,-14.151 c -0.901,-0.465 -2.117,-0.932 -3.651,-1.399 -1.566,-0.434 -3.283,-0.834 -5.149,-1.2 -1.9,-0.366 -3.934,-0.651 -6.101,-0.85 -2.132,-0.233 -4.283,-0.35 -6.45,-0.35 -5.466,0 -10.216,0.799 -14.25,2.4 -4.033,1.633 -7.366,3.866 -10,6.7 -2.699,2.833 -4.666,6.166 -5.899,10 -1.267,3.9 -1.901,8.1 -1.901,12.6 0,5.367 0.817,10.1 2.451,14.2 1.667,4.066 3.849,7.433 6.549,10.1 2.701,2.733 5.784,4.8 9.25,6.2 3.534,1.4 7.134,2.1 10.8,2.1 M 131.85,-43.851 h -17.2 V 17.25 h 17.2 z M 153.649,17.5 c 4.667,0.767 9.534,1.15 14.601,1.15 5.166,0 9.466,-0.684 12.899,-2.05 3.434,-1.367 6.151,-3.3 8.151,-5.8 2,-2.433 3.433,-5.35 4.3,-8.75 0.833,-3.433 1.25,-7.25 1.25,-11.45 V -43.851 H 177.649 V -11.6 c 0,5.566 -0.733,9.517 -2.2,11.85 -1.466,2.3 -4.216,3.45 -8.25,3.45 -1.199,0 -2.5,-0.067 -3.899,-0.2 -1.401,-0.1 -2.651,-0.233 -3.75,-0.4 v -46.951 h -17.2 V 15.1 c 2.933,0.866 6.7,1.667 11.299,2.4 M 77.449,3.7 C 75.883,3.7 74.433,3.566 73.1,3.3 71.733,3.033 70.5,2.733 69.399,2.4 v -46.251 h -17.2 V 43.45 l 17.2,2.8 V 17 c 1.167,0.367 2.651,0.733 4.451,1.1 1.833,0.366 3.599,0.55 5.299,0.55 4.934,0 9.034,-0.684 12.3,-2.05 3.301,-1.367 5.934,-3.3 7.901,-5.8 1.966,-2.433 3.366,-5.35 4.2,-8.75 0.766,-3.433 1.149,-7.25 1.149,-11.45 V -43.851 H 87.5 V -11.6 c 0,5.566 -0.717,9.517 -2.15,11.85 -1.434,2.3 -4.067,3.45 -7.901,3.45 m 53,38.45 c 2.034,-1.8 3.051,-4.283 3.051,-7.45 0,-3.167 -1.017,-5.65 -3.051,-7.45 -2.066,-1.833 -4.483,-2.75 -7.25,-2.75 -2.766,0 -5.182,0.917 -7.25,2.75 -2.033,1.8 -3.05,4.283 -3.05,7.45 0,3.167 1.017,5.65 3.05,7.45 2.068,1.833 4.484,2.75 7.25,2.75 2.767,0 5.184,-0.917 7.25,-2.75 m 108.25,-41.4 c -0.866,1.1 -1.983,2.017 -3.349,2.75 -1.3,0.733 -2.951,1.1 -4.951,1.1 -1.933,0 -3.583,-0.35 -4.95,-1.05 -1.399,-0.667 -2.55,-1.567 -3.449,-2.7 -0.9,-1.134 -1.617,-2.45 -2.15,-3.95 -0.467,-1.467 -0.817,-2.983 -1.05,-4.55 h 22.649 c -0.099,1.567 -0.349,3.067 -0.75,4.5 -0.432,1.466 -1.099,2.767 -2,3.9" /></g><g
           transform="translate(266.1499,275.1499)"
           id="g28"><path
             id="path30"
             style="fill:#8cd25a;fill-opacity:1;fill-rule:evenodd;stroke:none"
             d="m 0,0 c 20.733,-20.733 31.1,-45.783 31.1,-75.15 0,-29.333 -10.367,-54.366 -31.1,-75.1 -20.767,-20.766 -45.817,-31.15 -75.15,-31.15 -29.367,0 -54.416,10.384 -75.15,31.15 -20.733,20.734 -31.1,45.767 -31.1,75.1 0,29.367 10.367,54.417 31.1,75.15 20.734,20.733 45.783,31.1 75.15,31.1 C -45.817,31.1 -20.767,20.733 0,0" /></g></g></g><g
       id="g32"><g
         clip-path="url(#clipPath38)"
         id="g34"><g
           id="g40"><g
             id="g42"><path
               id="path52"
               style="fill:url(#radialGradient50);stroke:none"
               d="m 126.2,264.95 c -17.067,-17.333 -25.983,-38.966 -26.75,-64.9 v 0 c 0.433,-15 3.583,-28.567 9.45,-40.7 v 0 l 0.434,-0.434 21.666,15.333 -0.25,0.551 c -3.134,7.634 -4.817,16.05 -5.05,25.25 v 0 c 0.2,7.5 1.349,14.467 3.45,20.9 v 0 c -0.15,4.717 -1.017,8.117 -1.65,13.55 v 0 c -1.166,12.567 2.4,23.066 10,33.334 v 0 c 6.3,7.732 13.067,13.432 22.833,17.499 v 0 c 4.601,1.9 9,3.001 13.867,5.217 v 0 c -18.633,-3.433 -34.633,-11.967 -48,-25.6" /></g></g></g></g><g
       id="g54"><g
         clip-path="url(#clipPath60)"
         id="g56"><g
           id="g62"><g
             id="g64"><path
               id="path74"
               style="fill:url(#radialGradient72);stroke:none"
               d="m 246.083,235.999 0.017,-0.449 c 6.467,-10.1 9.883,-21.933 10.25,-35.5 v 0 c -0.167,-6.633 -1.051,-12.85 -2.65,-18.65 v 0 c -0.2,-3.9 0.633,-4.634 1.3,-6.9 v 0 c 0.833,-4.167 0.934,-8.634 1,-12.5 v 0 c -0.733,-17.534 -7.366,-28.5 -20.833,-38 v 0 C 221.6,114.334 206.833,111.165 189.8,107.75 v 0 h -0.65 c 0.6,-0.033 1.2,-0.05 1.8,-0.05 v 0 c 26.034,0.566 47.667,9.683 64.9,27.349 v 0 c 17.067,17.3 25.967,38.968 26.7,65.001 v 0 c -0.5,17.767 -4.833,33.517 -13,47.25 v 0 l -0.466,0.366 z" /></g></g></g></g><g
       id="g76"><g
         clip-path="url(#clipPath82)"
         id="g78"><g
           transform="translate(412.1001,217.1499)"
           id="g84"><path
             id="path86"
             style="fill:#282828;fill-opacity:1;fill-rule:evenodd;stroke:none"
             d="M 0,0 C -1.567,0 -3,-0.066 -4.3,-0.2 -5.6,-0.3 -6.684,-0.433 -7.55,-0.6 V -32 c 1.1,-0.667 2.517,-1.25 4.25,-1.75 1.733,-0.433 3.483,-0.65 5.25,-0.65 8.167,0 12.25,5.55 12.25,16.65 0,5.367 -1.2,9.65 -3.6,12.85 C 8.2,-1.633 4.667,0 0,0 m -19.45,12.8 c 2,0.4 4.117,0.767 6.35,1.1 2.2,0.3 4.433,0.55 6.7,0.75 2.3,0.2 4.483,0.3 6.55,0.3 5.033,0 9.5,-0.766 13.4,-2.3 3.933,-1.5 7.25,-3.633 9.95,-6.4 2.7,-2.733 4.767,-6.083 6.2,-10.05 1.433,-3.967 2.15,-8.4 2.15,-13.3 0,-4.767 -0.583,-9.083 -1.75,-12.95 -1.133,-3.9 -2.833,-7.25 -5.1,-10.05 -2.233,-2.767 -5,-4.934 -8.3,-6.5 -3.333,-1.533 -7.167,-2.3 -11.5,-2.3 -2.4,0 -4.65,0.217 -6.75,0.65 -2.067,0.5 -4.067,1.167 -6,2 v -19.5 l -17.2,-3.05 v 80.2 c 1.533,0.5 3.3,0.967 5.3,1.4" /></g><g
           transform="translate(253.7002,181.4014)"
           id="g88"><path
             id="path90"
             style="fill:#ffffff;fill-opacity:1;fill-rule:evenodd;stroke:none"
             d="M 0,0 C 0.833,-2.035 1.583,-4.185 2.25,-6.451 3.083,-10.618 3.533,-14.635 3.6,-18.5 2.867,-36.035 -4.233,-49.552 -17.7,-59.052 -31.267,-68.718 -46.667,-73.584 -63.9,-73.651 h -0.65 c -0.367,0 -0.717,0.016 -1.05,0.049 -24.667,1.167 -45.3,10.25 -61.9,27.25 -7.233,7.334 -13,15.435 -17.3,24.3 l 21.85,15.45 c 3.2,-7.898 7.916,-14.966 14.15,-21.2 11.733,-11.865 26.133,-18.349 43.2,-19.448 0.7,-0.035 1.4,-0.068 2.1,-0.102 h 0.75 c 0.333,0 0.667,0.018 1,0.05 h 0.3 c 1.8,0.068 3.567,0.2 5.3,0.401 l 1.35,0.151 c 6.667,1.065 13.017,3.398 19.05,7 4.6,2.766 8.167,6.583 10.7,11.448 2.867,5.568 3.434,11.017 1.7,16.351 -2.233,6.833 -8.4,11.75 -18.5,14.75 -6.267,1.899 -13.533,2.933 -21.8,3.099 -22.167,0.5 -38.967,6.25 -50.4,17.25 -3.567,3.467 -6.384,7.234 -8.45,11.301 l -2.05,5.1 c -1.267,3.599 -2.217,8.117 -2.85,13.55 v -0.25 c -1.167,12.567 2.05,23.983 9.65,34.25 6.3,7.733 14.333,13.633 24.1,17.7 4.6,1.9 9.317,3.349 14.15,4.349 4.767,0.901 9.733,1.451 14.9,1.651 0.6,0.066 1.217,0.099 1.85,0.099 0.466,0 0.933,-0.016 1.4,-0.049 25.4,-0.933 46.567,-10.034 63.5,-27.3 5.367,-5.467 9.933,-11.35 13.7,-17.651 L -7.6,54.148 c -2.467,3.867 -5.367,7.467 -8.7,10.801 -12.833,12.833 -28.316,19.4 -46.45,19.699 -2.667,0.034 -5.9,-0.25 -9.7,-0.849 -3.7,-0.567 -7,-1.3 -9.9,-2.2 -6.1,-1.867 -11.033,-5.05 -14.8,-9.55 -3.534,-4.234 -5,-9.883 -4.4,-16.95 1.1,-9.1 5.7,-15.05 13.8,-17.85 8,-2.833 17.083,-4.55 27.25,-5.15 9.466,-0.6 16.983,-1.634 22.55,-3.1 4.8,-1.3 10.033,-3.484 15.7,-6.55 C -11.417,16.615 -4,9.132 0,0" /></g></g></g></g></svg>