<?xml version="1.0" encoding="UTF-8" standalone="no"?>
<!-- Generator: Adobe Illustrator 16.0.0, SVG Export Plug-In . SVG Version: 6.00 Build 0)  -->

<svg
   xmlns:dc="http://purl.org/dc/elements/1.1/"
   xmlns:cc="http://creativecommons.org/ns#"
   xmlns:rdf="http://www.w3.org/1999/02/22-rdf-syntax-ns#"
   xmlns:svg="http://www.w3.org/2000/svg"
   xmlns="http://www.w3.org/2000/svg"
   xmlns:sodipodi="http://sodipodi.sourceforge.net/DTD/sodipodi-0.dtd"
   xmlns:inkscape="http://www.inkscape.org/namespaces/inkscape"
   version="1.1"
   x="0px"
   y="0px"
   width="567.55298"
   height="217.79401"
   viewBox="0 0 567.55297 217.794"
   enable-background="new 0 0 841.89 425.2"
   xml:space="preserve"
   id="svg60"
   sodipodi:docname="tensor-operations.svg"
   inkscape:version="0.92.0 r"><metadata
     id="metadata66"><rdf:RDF><cc:Work
         rdf:about=""><dc:format>image/svg+xml</dc:format><dc:type
           rdf:resource="http://purl.org/dc/dcmitype/StillImage" /></cc:Work></rdf:RDF></metadata><defs
     id="defs64" /><sodipodi:namedview
     pagecolor="#ffffff"
     bordercolor="#666666"
     borderopacity="1"
     objecttolerance="10"
     gridtolerance="10"
     guidetolerance="10"
     inkscape:pageopacity="0"
     inkscape:pageshadow="2"
     inkscape:window-width="1920"
     inkscape:window-height="1016"
     id="namedview62"
     showgrid="false"
     inkscape:zoom="1.189304"
     inkscape:cx="324.08495"
     inkscape:cy="47.149794"
     inkscape:window-x="0"
     inkscape:window-y="27"
     inkscape:window-maximized="1"
     inkscape:current-layer="svg60" /><text
     id="text10"
     x="16.992601"
     y="74.313904"><tspan
       style="font-size:18px;font-family:LiberationSans"
       id="tspan4"
       font-size="18"
       y="74.313904"
       x="16.992601">INPUT</tspan><tspan
       style="font-size:18px;font-family:LiberationSans"
       id="tspan6"
       font-size="18"
       y="117.5139"
       x="7.4866042">VECTOR</tspan><tspan
       style="font-size:18px;font-family:LiberationSans"
       id="tspan8"
       font-size="18"
       y="160.7139"
       x="27.486605">SET</tspan></text>
<path
     style="fill:#f4dfc1;stroke:#f68b20;stroke-width:3;stroke-miterlimit:10"
     inkscape:connector-curvature="0"
     id="path13"
     d="m 385.446,199.41 c 0,9.323 -8.347,16.884 -18.643,16.884 H 198.171 c -10.296,0 -18.643,-7.561 -18.643,-16.884 V 18.385 c 0,-9.325 8.347,-16.884 18.643,-16.884 h 168.632 c 10.296,0 18.643,7.559 18.643,16.884 z"
     stroke-miterlimit="10" /><path
     style="fill:none;stroke:#f68b20;stroke-width:3;stroke-miterlimit:10"
     inkscape:connector-curvature="0"
     id="path15"
     d="m 88.481,198.73 c 0,9.699 -4.565,17.563 -10.196,17.563 H 11.696 C 6.065,216.293 1.5,208.429 1.5,198.73 V 19.065 C 1.5,9.365 6.065,1.501 11.696,1.501 h 66.589 c 5.631,0 10.196,7.864 10.196,17.564 z"
     stroke-miterlimit="10" /><text
     id="text25"
     x="485.56583"
     y="74.313904"><tspan
       style="font-size:18px;font-family:LiberationSans"
       id="tspan19"
       font-size="18"
       y="74.313904"
       x="485.56583">OUTPUT</tspan><tspan
       style="font-size:18px;font-family:LiberationSans"
       id="tspan21"
       font-size="18"
       y="117.5139"
       x="485.05978">VECTOR</tspan><tspan
       style="font-size:18px;font-family:LiberationSans"
       id="tspan23"
       font-size="18"
       y="160.7139"
       x="505.05978">SET</tspan></text>
<text
     id="text33"
     x="246.98671"
     y="94.473602"><tspan
       style="font-size:18px;font-family:LiberationSans"
       id="tspan29"
       font-size="18"
       y="94.473602"
       x="246.98671">TENSOR</tspan><tspan
       style="font-size:18px;font-family:LiberationSans"
       id="tspan31"
       font-size="18"
       y="137.6736"
       x="225.47969">OPERATIONS</tspan></text>
<path
     style="fill:none"
     inkscape:connector-curvature="0"
     id="path35"
     d="m 353.493,153.998 c 0,6.627 -5.373,12 -12,12 h -134.58 c -6.627,0 -12,-5.373 -12,-12 V 66.163 c 0,-6.627 5.373,-12 12,-12 h 134.58 c 6.627,0 12,5.373 12,12 z" /><g
     id="g45"
     transform="translate(-140.442,-83.961)"><g
       id="g43"><line
         style="fill:none;stroke:#f68b20;stroke-width:3;stroke-miterlimit:10"
         id="line37"
         y2="194.633"
         x2="289.28601"
         y1="194.633"
         x1="239.533"
         stroke-miterlimit="10" /><g
         id="g41"><polygon
           style="fill:#f68b20"
           id="polygon39"
           points="315.864,194.633 283.341,185.917 283.341,203.349 " /></g></g></g><g
     id="g55"
     transform="translate(-140.442,-83.961)"><g
       id="g53"><line
         style="fill:none;stroke:#f68b20;stroke-width:3;stroke-miterlimit:10"
         id="line47"
         y2="194.633"
         x2="587.06"
         y1="194.633"
         x1="537.30798"
         stroke-miterlimit="10" /><g
         id="g51"><polygon
           style="fill:#f68b20"
           id="polygon49"
           points="613.638,194.633 581.116,185.917 581.116,203.349 " /></g></g></g><path
     style="fill:none;stroke:#f68b20;stroke-width:3;stroke-miterlimit:10"
     inkscape:connector-curvature="0"
     id="path57"
     d="m 566.053,198.73 c 0,9.699 -4.565,17.563 -10.196,17.563 h -66.59 c -5.631,0 -10.195,-7.863 -10.195,-17.563 V 19.064 c 0,-9.7 4.564,-17.564 10.195,-17.564 h 66.59 c 5.631,0 10.196,7.864 10.196,17.564 z"
     stroke-miterlimit="10" /></svg>