<?xml version="1.0" encoding="UTF-8" standalone="no"?>
<!-- Generator: Adobe Illustrator 16.0.0, SVG Export Plug-In . SVG Version: 6.00 Build 0)  -->

<svg
   xmlns:dc="http://purl.org/dc/elements/1.1/"
   xmlns:cc="http://creativecommons.org/ns#"
   xmlns:rdf="http://www.w3.org/1999/02/22-rdf-syntax-ns#"
   xmlns:svg="http://www.w3.org/2000/svg"
   xmlns="http://www.w3.org/2000/svg"
   xmlns:sodipodi="http://sodipodi.sourceforge.net/DTD/sodipodi-0.dtd"
   xmlns:inkscape="http://www.inkscape.org/namespaces/inkscape"
   version="1.1"
   x="0px"
   y="0px"
   width="626.66699"
   height="234.51102"
   viewBox="0 0 626.66698 234.51101"
   enable-background="new 0 0 841.89 595.28"
   xml:space="preserve"
   id="svg81"
   sodipodi:docname="wtf-1.svg"
   inkscape:version="0.92.0 r"><metadata
     id="metadata87"><rdf:RDF><cc:Work
         rdf:about=""><dc:format>image/svg+xml</dc:format><dc:type
           rdf:resource="http://purl.org/dc/dcmitype/StillImage" /></cc:Work></rdf:RDF></metadata><defs
     id="defs85" /><sodipodi:namedview
     pagecolor="#ffffff"
     bordercolor="#666666"
     borderopacity="1"
     objecttolerance="10"
     gridtolerance="10"
     guidetolerance="10"
     inkscape:pageopacity="0"
     inkscape:pageshadow="2"
     inkscape:window-width="640"
     inkscape:window-height="480"
     id="namedview83"
     showgrid="false"
     inkscape:zoom="0.39645207"
     inkscape:cx="289.94501"
     inkscape:cy="132"
     inkscape:window-x="0"
     inkscape:window-y="27"
     inkscape:window-maximized="0"
     inkscape:current-layer="svg81" /><g
     id="Layer_2"
     transform="translate(-131,-195.12901)"><circle
       stroke-miterlimit="10"
       cx="327.27802"
       cy="226.79601"
       r="29.667"
       id="circle2"
       style="fill:#ffffff;stroke:#f26922;stroke-width:4;stroke-miterlimit:10" /><rect
       x="131"
       y="259.46301"
       width="106"
       height="145.33299"
       id="rect4"
       style="fill:none" /><text
       transform="translate(131,325.7715)"
       font-size="100"
       id="text6"
       style="font-size:100px;font-family:Gabriola">x</text>
<rect
       x="305.33401"
       y="197"
       width="59.333"
       height="86"
       id="rect8"
       style="fill:none" /><text
       transform="translate(305.334,249.1992)"
       font-size="72"
       id="text10"
       style="font-size:72px;font-family:LiberationSans">+</text>
<circle
       stroke-miterlimit="10"
       cx="322.41699"
       cy="389.76999"
       r="29.666"
       id="circle12"
       style="fill:#ffffff;stroke:#f26922;stroke-width:4;stroke-miterlimit:10" /><rect
       x="305.47198"
       y="343.64001"
       width="59.334"
       height="86"
       id="rect14"
       style="fill:none" /><text
       transform="translate(305.4722,416.1387)"
       font-size="100"
       id="text16"
       style="font-size:100px;font-family:LiberationSans">-</text>
<rect
       x="651.66699"
       y="259.46201"
       width="106"
       height="145.33299"
       id="rect18"
       style="fill:none" /><text
       transform="translate(651.667,325.7715)"
       font-size="100"
       id="text20"
       style="font-size:100px;font-family:Gabriola">y</text>
<path
       stroke-miterlimit="10"
       d="m 552.459,341.526 c 0,4.368 -3.125,7.911 -6.98,7.911 H 446.98 c -3.855,0 -6.98,-3.543 -6.98,-7.911 v -65.488 c 0,-4.369 3.125,-7.912 6.98,-7.912 h 98.498 c 3.855,0 6.98,3.542 6.98,7.912 v 65.488 z"
       id="path22"
       inkscape:connector-curvature="0"
       style="fill:#ffffff;stroke:#f26922;stroke-width:4;stroke-miterlimit:10" /></g><g
     id="Layer_4"
     transform="translate(-131,-195.12901)"><g
       id="g33"><g
         id="g31"><path
           stroke-miterlimit="10"
           d="m 168.519,279.05 c 0,-27.512 49.185,-49.808 110.213,-50.098"
           id="path25"
           inkscape:connector-curvature="0"
           style="fill:none;stroke:#030202;stroke-miterlimit:10" /><g
           id="g29"><path
             d="m 272.01,233.93 c -0.154,-0.229 -0.092,-0.54 0.138,-0.693 l 6.358,-4.255 -6.544,-3.962 c -0.236,-0.143 -0.312,-0.451 -0.169,-0.687 0.144,-0.236 0.453,-0.311 0.687,-0.169 l 7.216,4.369 c 0.146,0.088 0.237,0.246 0.241,0.417 0.004,0.171 -0.08,0.332 -0.222,0.427 l -7.01,4.691 c -0.082,0.055 -0.175,0.083 -0.266,0.084 -0.167,0.004 -0.33,-0.074 -0.429,-0.222 z"
             id="path27"
             inkscape:connector-curvature="0"
             style="fill:#030202" /></g></g></g><g
       id="g43"><g
         id="g41"><path
           stroke-miterlimit="10"
           d="m 168.519,337.071 c 0,27.513 49.185,49.81 110.213,50.099"
           id="path35"
           inkscape:connector-curvature="0"
           style="fill:none;stroke:#030202;stroke-miterlimit:10" /><g
           id="g39"><path
             d="m 271.792,391.789 c -0.143,-0.235 -0.067,-0.543 0.169,-0.687 l 6.544,-3.962 -6.358,-4.255 c -0.229,-0.153 -0.292,-0.465 -0.138,-0.693 0.154,-0.229 0.466,-0.289 0.694,-0.138 l 7.01,4.691 c 0.142,0.095 0.226,0.256 0.222,0.427 -0.004,0.171 -0.095,0.328 -0.241,0.417 l -7.216,4.368 c -0.084,0.051 -0.178,0.074 -0.27,0.072 -0.164,-0.003 -0.323,-0.089 -0.416,-0.24 z"
             id="path37"
             inkscape:connector-curvature="0"
             style="fill:#030202" /></g></g></g><g
       id="g53"><g
         id="g51"><path
           stroke-miterlimit="10"
           d="m 364.667,229.385 28.393,-0.323 c 0,0 9.614,-0.404 26.097,0.323 43.545,1.92 50.692,23.667 51.794,29.015"
           id="path45"
           inkscape:connector-curvature="0"
           style="fill:none;stroke:#030202;stroke-miterlimit:10" /><g
           id="g49"><path
             d="m 465.098,252.433 c 0.205,-0.184 0.521,-0.167 0.706,0.039 l 5.104,5.698 3.005,-7.035 c 0.108,-0.254 0.402,-0.372 0.656,-0.264 0.253,0.109 0.37,0.405 0.264,0.656 l -3.313,7.757 c -0.067,0.157 -0.21,0.269 -0.379,0.297 -0.169,0.028 -0.34,-0.033 -0.454,-0.16 l -5.628,-6.283 c -0.065,-0.073 -0.106,-0.161 -0.121,-0.252 -0.027,-0.161 0.028,-0.334 0.16,-0.453 z"
             id="path47"
             inkscape:connector-curvature="0"
             style="fill:#030202" /></g></g></g><g
       id="g63"><g
         id="g61"><path
           stroke-miterlimit="10"
           d="m 359.711,386.737 28.393,0.323 c 0,0 9.614,0.404 26.097,-0.323 43.544,-1.921 50.693,-23.667 51.794,-29.015"
           id="path55"
           inkscape:connector-curvature="0"
           style="fill:none;stroke:#030202;stroke-miterlimit:10" /><g
           id="g59"><path
             d="m 469.614,365.25 c -0.254,0.109 -0.549,-0.01 -0.656,-0.264 l -3.006,-7.035 -5.104,5.699 c -0.186,0.205 -0.502,0.223 -0.707,0.039 -0.205,-0.186 -0.221,-0.503 -0.039,-0.707 l 5.629,-6.283 c 0.113,-0.127 0.285,-0.188 0.453,-0.159 0.17,0.028 0.313,0.14 0.379,0.297 l 3.314,7.757 c 0.037,0.091 0.047,0.188 0.033,0.277 -0.026,0.163 -0.134,0.309 -0.296,0.379 z"
             id="path57"
             inkscape:connector-curvature="0"
             style="fill:#030202" /></g></g></g><g
       id="g73"><g
         id="g71"><line
           stroke-miterlimit="10"
           x1="564"
           y1="308.78201"
           x2="635.79797"
           y2="308.78201"
           id="line65"
           style="fill:none;stroke:#000000;stroke-miterlimit:10" /><g
           id="g69"><path
             d="m 628.963,313.582 c -0.148,-0.232 -0.079,-0.542 0.154,-0.69 l 6.452,-4.109 -6.452,-4.109 c -0.233,-0.148 -0.303,-0.458 -0.154,-0.69 0.149,-0.232 0.46,-0.3 0.691,-0.153 l 7.114,4.531 c 0.144,0.092 0.231,0.251 0.231,0.422 0,0.171 -0.088,0.33 -0.231,0.422 l -7.114,4.531 c -0.084,0.053 -0.177,0.078 -0.269,0.078 -0.164,-0.002 -0.326,-0.084 -0.422,-0.233 z"
             id="path67"
             inkscape:connector-curvature="0" /></g></g></g></g><g
     id="Layer_3"
     transform="translate(-131,-195.12901)"><rect
       x="454.66599"
       y="253.063"
       width="160.66701"
       height="114.667"
       id="rect76"
       style="fill:none" /><text
       transform="translate(454.666,319.3721)"
       font-size="100"
       id="text78"
       style="font-size:100px;font-family:Gabriola">op</text>
</g></svg>